<svg version="1.1" id="Layer_1" xmlns="http://www.w3.org/2000/svg" xmlns:xlink="http://www.w3.org/1999/xlink" x="0px" y="0px"
	 width="100%" viewBox="0 0 392 403" enable-background="new 0 0 392 403" xml:space="preserve">
<path fill="#030404" opacity="1.000000" stroke="none" 
	d="
M1.000000,153.000000 
	C1.000000,102.015877 1.000000,51.531757 1.000000,1.023817 
	C131.609695,1.023817 262.219391,1.023817 392.914551,1.023817 
	C392.914551,135.234085 392.914551,269.468231 392.914551,403.851196 
	C262.333466,403.851196 131.666748,403.851196 1.000000,403.851196 
	C1.000000,320.447327 1.000000,236.973663 1.000000,153.000000 
M56.501705,281.750031 
	C56.903324,282.182556 57.304943,282.615051 57.996906,283.867249 
	C58.378937,285.824768 58.760963,287.782288 58.693668,290.154907 
	C59.196548,290.671661 59.699425,291.188416 60.334156,292.356964 
	C60.480572,293.229187 60.626991,294.101410 60.404190,295.473633 
	C61.143600,297.121399 61.883011,298.769135 62.573235,300.948364 
	C62.656994,301.291901 62.740753,301.635437 62.469273,302.492310 
	C63.229309,304.097778 63.989349,305.703247 64.684967,307.871826 
	C64.739250,308.243317 64.793526,308.614807 64.507576,309.456879 
	C65.792549,309.587585 67.669785,310.312317 68.248787,309.734985 
	C69.833176,308.155182 70.870979,306.027222 72.008308,303.998047 
	C72.008308,303.998047 72.114922,304.124908 72.783211,304.036682 
	C74.443947,301.975922 76.104683,299.915131 77.869675,297.879547 
	C77.869675,297.879547 77.864037,297.772461 78.530991,297.799469 
	C81.387779,294.222382 84.244560,290.645294 87.573608,286.659760 
	C88.345924,285.707855 89.118233,284.755920 90.544594,283.708740 
	C94.372879,279.144501 98.201164,274.580261 102.446709,269.540955 
	C103.254494,268.588257 104.062286,267.635559 105.528099,266.667694 
	C109.602112,261.727722 113.676125,256.787720 117.859581,251.877762 
	C117.859581,251.877762 117.865005,251.764404 118.481789,251.808807 
	C118.875977,251.143768 119.270164,250.478729 119.818039,249.835800 
	C119.818039,249.835800 119.831612,249.681122 120.444572,249.738205 
	C120.814232,249.085526 121.183899,248.432831 121.752220,247.748856 
	C121.752220,247.748856 121.783752,247.550247 122.435287,247.585968 
	C125.311401,244.071091 128.187515,240.556213 131.533829,236.599823 
	C132.646027,235.298126 133.758224,233.996429 135.495499,232.709671 
	C136.065201,231.875916 136.634918,231.042160 137.003052,230.001831 
	C137.003052,230.001831 137.209763,230.203400 137.878265,230.111969 
	C140.782669,226.341629 143.687073,222.571289 146.775574,218.744156 
	C146.775574,218.744156 146.789093,218.551971 147.421722,218.536499 
	C148.356720,217.435165 149.291733,216.333847 149.997742,215.063660 
	C149.997742,215.063660 150.238876,215.213501 150.879166,215.025986 
	C154.408829,210.617249 157.938492,206.208511 162.061371,201.509872 
	C163.092255,200.409256 164.123138,199.308624 165.969131,197.893723 
	C167.963531,198.281265 169.957932,198.668808 171.999390,199.000458 
	C171.999390,199.000458 171.943527,199.047623 171.987259,199.678696 
	C172.655685,200.123032 173.324112,200.567368 174.303253,201.425858 
	C174.611099,201.576553 174.918930,201.727264 175.231659,202.491898 
	C175.872238,202.860443 176.512817,203.228989 177.512512,204.038803 
	C177.901901,204.442978 178.291290,204.847137 178.840546,205.842697 
	C179.465073,206.314316 180.089615,206.785934 180.887756,207.096054 
	C180.887756,207.096054 180.749832,207.288925 180.865753,207.879349 
	C181.488968,208.333496 182.112183,208.787659 182.944778,209.057144 
	C182.944778,209.057144 182.759735,209.266190 182.847076,209.865631 
	C183.481049,210.320404 184.115021,210.775192 184.973053,211.049789 
	C184.973053,211.049789 184.767761,211.251190 184.834290,211.856689 
	C185.480255,212.308212 186.126205,212.759735 187.002502,213.035995 
	C187.002502,213.035995 186.782578,213.225296 186.819107,213.837875 
	C187.474014,214.292007 188.128922,214.746140 189.006699,215.031494 
	C189.006699,215.031494 188.791458,215.211838 188.815918,215.833160 
	C189.490967,216.274536 190.166016,216.715912 191.001831,217.004120 
	C191.001831,217.004120 190.838226,217.152939 190.876968,217.835175 
	C193.329666,220.193924 195.822876,222.512329 198.223587,224.922867 
	C200.596268,227.305267 202.620056,227.502731 204.822937,223.921936 
	C205.592560,223.007935 206.362183,222.093933 207.782364,220.997070 
	C211.589233,216.401825 215.396103,211.806595 219.007553,207.006714 
	C219.007553,207.006714 219.212097,207.202301 219.816849,207.108429 
	C220.263824,206.457581 220.710800,205.806747 221.001831,204.999390 
	C221.001831,204.999390 221.154068,205.159012 221.821594,205.055023 
	C224.786942,201.316177 227.752274,197.577332 230.858353,193.830566 
	C230.858353,193.830566 230.825714,193.693451 231.466385,193.691391 
	C232.365677,192.513321 233.264969,191.335251 234.000000,190.000610 
	C234.000000,190.000610 234.162964,190.159042 234.757538,189.997925 
	C235.200058,189.356506 235.642578,188.715073 235.998062,188.005844 
	C235.998062,188.005844 236.076370,188.084427 236.716187,187.941498 
	C237.396042,186.912292 238.075897,185.883072 238.873703,184.853714 
	C238.873703,184.853714 238.843292,184.739761 239.505249,184.720703 
	C241.535767,182.092255 243.566299,179.463791 245.977234,176.636597 
	C245.977234,176.636597 246.200562,176.270081 246.874100,176.151337 
	C251.086731,171.043213 255.299362,165.935089 259.929901,160.269135 
	C260.975098,159.375870 262.020264,158.482605 263.336273,158.181381 
	C263.846893,158.517487 264.357513,158.853592 265.312805,159.653412 
	C267.091553,161.226776 268.870331,162.800156 271.022369,165.296463 
	C273.664886,166.736786 274.874237,166.244156 274.194550,162.101410 
	C274.134979,149.400986 274.075439,136.700577 274.433655,123.665260 
	C273.219849,123.307007 271.932068,122.488609 270.804993,122.669823 
	C265.818634,123.471611 260.882996,124.584122 255.920563,125.540413 
	C248.367859,126.995872 240.803284,128.391373 233.269882,129.939499 
	C232.977570,129.999557 232.955917,131.376617 232.925430,132.055527 
	C232.925430,132.055527 232.840790,132.172699 232.839905,132.842239 
	C233.558701,133.229935 234.277481,133.617615 235.453049,134.273056 
	C235.758194,134.450317 236.063354,134.627579 236.339035,135.425842 
	C236.965225,135.821991 237.591400,136.218124 238.277634,136.740570 
	C238.277634,136.740570 238.414032,136.771469 238.482971,137.508423 
	C239.122559,139.082397 239.762146,140.656372 240.266708,142.274139 
	C240.266708,142.274139 240.232880,142.411987 239.597916,142.338013 
	C239.021744,143.191040 238.445557,144.044052 237.436462,145.101990 
	C237.157608,145.285858 236.969376,145.537491 236.254898,145.990128 
	C235.813828,146.638779 235.372772,147.287430 235.000000,147.999390 
	C235.000000,147.999390 234.933472,147.933517 234.286911,148.071091 
	C233.606155,149.102219 232.925400,150.133331 232.156479,151.165985 
	C232.156479,151.165985 232.169907,151.253128 231.500198,151.235291 
	C229.483841,153.905396 227.467499,156.575485 225.076477,159.454330 
	C225.076477,159.454330 224.790512,159.773941 224.176575,159.852402 
	C223.750809,160.533218 223.325027,161.214035 222.999390,162.000000 
	C222.999390,162.000000 222.897125,161.896332 222.217361,161.935898 
	C217.990967,167.041534 213.764572,172.147171 209.129013,177.785217 
	C207.786591,179.238678 206.444183,180.692139 204.453934,182.188889 
	C204.050415,182.846512 203.646912,183.504120 203.155273,184.173630 
	C203.155273,184.173630 203.177536,184.259705 202.480423,184.306961 
	C198.860092,188.763062 196.904968,183.183533 193.530792,182.520096 
	C191.277679,180.395950 189.024551,178.271805 186.739670,175.508331 
	C186.102875,175.093246 185.466095,174.678177 184.811203,174.170670 
	C184.811203,174.170670 184.718033,174.184433 184.687408,173.520035 
	C179.482239,168.982620 174.277054,164.445206 168.636215,159.617096 
	C168.318573,159.472214 168.000916,159.327316 167.622101,158.512054 
	C166.135834,158.538193 163.962448,157.939667 163.276917,158.693741 
	C159.372284,162.988724 155.822495,167.606293 152.074799,172.066055 
	C152.074799,172.066055 152.108688,172.150574 151.457886,172.106430 
	C151.072784,172.802246 150.687698,173.498062 150.198944,174.201187 
	C150.198944,174.201187 150.191559,174.304825 149.524521,174.256546 
	C147.294418,177.123535 145.064301,179.990524 142.434631,183.328552 
	C141.651718,184.259186 140.868805,185.189819 139.419418,186.204544 
	C135.587448,190.783432 131.755463,195.362320 127.572075,200.454727 
	C126.762756,201.384949 125.953445,202.315170 124.506081,203.265488 
	C124.100563,203.903641 123.695045,204.541809 123.191048,205.209015 
	C123.191048,205.209015 123.195335,205.311600 122.531837,205.340424 
	C119.094788,209.611847 115.657738,213.883270 112.146126,218.136475 
	C112.146126,218.136475 112.139725,218.212967 111.506058,218.159241 
	C111.098206,218.834198 110.690353,219.509140 110.187157,220.182068 
	C110.187157,220.182068 110.170631,220.275970 109.538269,220.224564 
	C109.155281,220.891510 108.772293,221.558456 108.259819,222.264709 
	C108.259819,222.264709 108.220230,222.394119 107.559601,222.358185 
	C104.685394,225.888641 101.811195,229.419083 98.480217,233.433914 
	C96.585442,235.548325 94.690666,237.662735 92.115707,239.833862 
	C89.395805,243.211563 86.675903,246.589264 83.636993,250.372253 
	C83.480675,250.678314 83.324364,250.984390 82.542984,251.302689 
	C82.149696,251.932953 81.756409,252.563202 80.954224,253.582611 
	C80.541679,253.961075 80.129135,254.339539 79.113983,254.846954 
	C78.675438,255.488632 78.236900,256.130310 77.934685,256.914276 
	C77.934685,256.914276 77.770119,256.805908 77.109703,256.924774 
	C73.557159,261.365295 70.004616,265.805786 66.300377,270.308319 
	C66.300377,270.308319 66.237862,270.459808 65.628746,270.393097 
	C65.252769,271.011841 64.876793,271.630615 63.970566,272.675568 
	C62.021793,274.848083 60.073017,277.020630 57.594162,279.056030 
	C57.285320,279.732635 56.976475,280.409241 56.501705,281.750031 
M310.023071,90.208168 
	C309.374786,89.717010 308.726532,89.225853 307.995148,88.326683 
	C307.854187,88.049599 307.628296,87.909760 307.008942,87.290649 
	C305.325684,85.982101 303.642395,84.673553 301.419037,82.923965 
	C297.965546,80.273567 294.512054,77.623169 291.026825,74.971230 
	C291.026825,74.971230 291.021637,74.939911 290.829590,74.336777 
	C290.254089,74.158951 289.678619,73.981133 289.109100,73.934853 
	C289.109100,73.934853 289.165375,73.815796 288.966705,73.159218 
	C287.982758,72.679726 286.998810,72.200241 285.822937,71.621460 
	C285.822937,71.621460 285.654297,71.756577 285.340240,71.075661 
	C284.277130,70.516190 283.214020,69.956718 282.000610,68.837021 
	C281.338684,68.531715 280.676727,68.226402 279.574707,67.610619 
	C279.395508,67.622238 279.216309,67.633850 278.831787,67.573845 
	C278.831787,67.573845 278.686218,67.735458 278.420197,67.048576 
	C276.909027,66.099899 275.499603,64.896339 273.869537,64.245544 
	C265.690460,60.980156 257.453613,57.859360 248.894653,54.058548 
	C243.289017,52.649498 237.683380,51.240448 231.941162,49.244835 
	C231.270584,49.176884 230.600021,49.108932 229.102432,48.684761 
	C225.786118,48.396572 222.469818,48.108383 218.870636,47.151611 
	C217.217377,47.076141 215.564117,47.000671 213.040848,46.620514 
	C205.087997,46.685932 197.135132,46.751350 188.386597,46.417488 
	C185.592545,47.065521 182.798508,47.713554 179.549118,48.393089 
	C179.549118,48.393089 179.211166,48.699875 178.590714,48.555290 
	C178.391129,48.627834 178.191544,48.700375 177.270966,48.464882 
	C176.240341,48.545788 175.209717,48.626690 173.451096,48.377380 
	C171.480240,49.077610 169.509399,49.777840 166.917221,50.513397 
	C166.300644,50.592579 165.684067,50.671757 164.477859,50.359756 
	C156.962341,52.564255 149.193863,54.146961 141.976028,57.083214 
	C113.946426,68.485817 90.682678,86.189224 72.221718,110.343102 
	C49.842701,139.623260 40.089260,172.957138 39.591103,209.310318 
	C39.494125,216.387634 40.734707,223.517700 41.764904,230.563995 
	C42.457928,235.304092 43.866310,239.939636 44.954655,244.621948 
	C45.633686,244.906723 46.312717,245.191483 46.991749,245.476242 
	C48.451164,243.507629 49.775345,241.419373 51.393074,239.590820 
	C58.986588,231.007690 66.813454,222.624680 74.198105,213.867554 
	C76.028152,211.697418 77.315903,208.445602 77.488113,205.608170 
	C78.303543,192.172119 80.287193,178.991226 85.072601,166.377274 
	C87.811012,159.159058 91.065254,152.136505 94.379578,144.540833 
	C94.520424,144.019257 94.661278,143.497665 95.432755,142.710602 
	C104.939026,128.888123 115.507599,116.061348 129.365005,106.284836 
	C132.681580,103.944969 135.893814,101.457245 139.568253,99.024132 
	C139.850632,98.925690 140.039139,98.734634 140.652847,98.416115 
	C140.787964,98.307396 140.923065,98.198685 141.525787,98.085396 
	C141.850861,97.987701 142.068817,97.778450 142.947006,97.346870 
	C144.331070,96.797104 145.754639,96.329391 147.093216,95.685112 
	C163.874054,87.608093 181.451126,83.131363 200.192368,83.689636 
	C204.484634,83.817497 208.787506,83.589180 213.905624,83.782967 
	C215.624298,83.785370 217.342987,83.787781 219.586395,84.282242 
	C221.740646,84.688347 223.894897,85.094452 226.794815,85.792656 
	C228.388824,85.938972 229.982834,86.085289 231.970230,86.892365 
	C233.973495,87.264099 235.976746,87.635834 238.301804,88.216331 
	C238.301804,88.216331 238.684692,88.193100 238.997177,88.834938 
	C241.988312,89.867821 244.979446,90.900711 248.450333,92.189606 
	C248.807175,92.203560 249.164001,92.217506 249.871353,92.813248 
	C251.259537,93.319275 252.647736,93.825294 254.542603,94.725014 
	C254.945801,94.857544 255.348984,94.990067 255.963104,95.780884 
	C276.701141,106.883133 293.834229,121.900337 306.229645,142.063629 
	C312.833496,152.805862 318.098724,164.165909 320.553619,176.563843 
	C322.482178,186.303467 323.642609,196.195175 324.979004,206.685165 
	C325.029449,207.137131 325.079865,207.589111 324.700623,208.696365 
	C323.411682,217.196762 322.556488,225.791092 320.740112,234.177261 
	C317.351746,249.821457 310.694855,264.164825 300.879272,276.787109 
	C294.817322,284.582458 287.813660,291.645508 280.737518,299.373962 
	C280.112396,300.126740 279.487244,300.879517 278.133881,301.721313 
	C274.393860,304.413300 270.653870,307.105286 266.202087,309.997711 
	C252.689148,316.754211 239.053955,323.190796 223.610535,325.712616 
	C223.069794,326.117859 222.529037,326.523102 221.161453,326.939209 
	C219.812775,327.181763 218.464111,327.424347 216.395554,327.353424 
	C215.904831,327.492645 215.414093,327.631836 214.318726,327.479340 
	C212.559448,327.652557 210.800156,327.825806 208.197632,327.581024 
	C203.115646,327.702820 198.033676,327.824615 192.221298,327.592255 
	C191.168015,327.676880 190.114731,327.761505 188.284119,327.418365 
	C181.707535,326.018707 175.125107,324.645844 168.555511,323.214050 
	C152.761383,319.771790 138.867325,312.408051 126.517288,302.179626 
	C123.577919,299.745209 122.158447,300.446930 120.072563,302.833130 
	C114.391342,309.332336 108.534981,315.678101 102.805580,322.135681 
	C101.186974,323.960022 99.766472,325.960083 98.288490,327.837158 
	C107.853714,336.880829 132.302261,351.190887 144.159256,354.763580 
	C148.464508,356.060822 152.809830,357.225098 157.741745,358.688965 
	C158.172043,358.727356 158.602356,358.765717 159.377594,359.484344 
	C164.292542,360.501862 169.207489,361.519379 174.878342,362.776917 
	C175.931808,362.782684 176.985291,362.788452 178.588135,363.298004 
	C181.766266,363.701447 184.944382,364.104919 188.907532,364.743256 
	C190.268188,364.728241 191.628860,364.713226 193.495407,364.912659 
	C193.666992,364.848511 193.838562,364.784393 194.908066,364.899170 
	C198.258179,364.860840 201.608292,364.822510 205.823563,365.060394 
	C208.222565,364.938293 210.621567,364.816223 213.779404,364.849579 
	C215.850937,364.563538 217.922485,364.277496 220.280975,364.402985 
	C220.888763,364.048126 221.496552,363.693268 222.843658,363.330170 
	C223.548981,363.128082 224.254318,362.926025 225.830780,362.944183 
	C229.373077,362.323273 232.908340,361.658539 236.458893,361.089172 
	C250.843674,358.782410 264.060852,353.144928 276.712677,346.285889 
	C283.453979,342.631104 289.548584,337.783417 296.594330,333.525482 
	C314.212280,321.776398 327.760284,306.046326 338.610748,288.220337 
	C353.416565,263.896210 360.828583,237.439758 360.927948,208.584549 
	C361.020721,181.638885 355.782562,156.302536 343.330933,132.572433 
	C339.468903,125.212196 333.938843,118.727219 329.051636,111.147263 
	C323.438385,105.033188 317.825134,98.919113 312.065338,92.217949 
	C311.445709,91.747574 310.826080,91.277199 310.023071,90.208168 
M229.995605,229.500412 
	C229.995605,247.914062 229.995605,266.327698 229.995605,284.979492 
	C240.725906,284.979492 251.097565,284.979492 261.183533,284.979492 
	C261.183533,248.256836 261.183533,211.897385 261.183533,174.744690 
	C257.247162,179.255264 253.983795,182.969772 250.748642,186.708725 
	C247.488892,190.476089 244.748306,194.885910 240.918076,197.929047 
	C230.772659,205.989624 228.569519,216.505310 229.995605,229.500412 
M175.537613,270.489441 
	C175.554321,255.002655 175.221436,239.503799 175.754608,224.034821 
	C175.977341,217.573105 174.068939,213.363739 168.151184,210.731277 
	C162.243439,217.382874 156.646072,224.421875 150.263779,230.657471 
	C144.241470,236.541321 141.782928,242.916473 142.356064,251.411438 
	C143.101913,262.466553 142.538422,273.609985 142.538422,284.895142 
	C153.829361,284.895142 164.523590,284.895142 175.537491,284.895142 
	C175.537491,280.114655 175.537491,275.798676 175.537613,270.489441 
M208.216660,235.852554 
	C202.815384,240.731400 200.671173,240.818100 195.690857,235.687286 
	C193.062439,232.979462 190.894165,229.824997 188.518143,226.872192 
	C187.927979,227.324600 187.337814,227.777023 186.747650,228.229446 
	C186.747650,247.075867 186.747650,265.922272 186.747650,285.321564 
	C196.003296,285.321564 205.114349,285.179993 214.217300,285.390137 
	C217.938568,285.476074 219.020752,284.281982 218.979446,280.525879 
	C218.805588,264.714325 218.970200,248.899033 219.008621,233.085114 
	C219.014923,230.495316 219.009506,227.905487 219.009506,225.315674 
	C218.657043,225.127747 218.304581,224.939804 217.952118,224.751877 
	C214.883286,228.272552 211.814453,231.793213 208.216660,235.852554 
z"/>
<path fill="#F8F8F7" opacity="1.000000" stroke="none" 
	d="
M104.870071,266.682861 
	C104.062286,267.635559 103.254494,268.588257 101.895782,269.788696 
	C97.526756,274.625641 93.708656,279.214813 89.890549,283.804016 
	C89.118233,284.755920 88.345924,285.707855 86.991058,286.850708 
	C83.560356,290.618622 80.712196,294.195526 77.864037,297.772461 
	C77.864037,297.772461 77.869675,297.879547 77.476753,297.869202 
	C75.427528,299.947571 73.771233,302.036255 72.114929,304.124908 
	C72.114922,304.124908 72.008308,303.998047 71.720375,304.018066 
	C69.237564,305.687469 67.042679,307.336884 64.847801,308.986267 
	C64.793526,308.614807 64.739250,308.243317 64.842529,307.212189 
	C64.274910,305.028015 63.549713,303.503510 62.824516,301.978973 
	C62.740753,301.635437 62.656994,301.291901 62.756966,300.304626 
	C62.218269,298.098450 61.495838,296.536041 60.773407,294.973633 
	C60.626991,294.101410 60.480572,293.229187 60.386471,291.783325 
	C60.006851,290.719757 59.574917,290.229797 59.142986,289.739807 
	C58.760963,287.782288 58.378937,285.824768 58.125084,283.399200 
	C58.171162,282.287323 58.089058,281.643463 58.091148,280.699280 
	C58.158314,279.996979 58.141285,279.595093 58.124245,279.193176 
	C60.073017,277.020630 62.021793,274.848083 64.511238,272.437256 
	C65.447227,271.619263 65.842545,271.039520 66.237862,270.459808 
	C66.237862,270.459808 66.300377,270.308319 66.696510,270.208008 
	C70.651802,265.673767 74.210960,261.239838 77.770119,256.805908 
	C77.770119,256.805908 77.934685,256.914276 78.213120,256.876831 
	C78.899902,256.132263 79.308243,255.425125 79.716583,254.718002 
	C80.129135,254.339539 80.541679,253.961075 81.447525,253.344482 
	C82.349899,252.501038 82.758972,251.895752 83.168045,251.290451 
	C83.324364,250.984390 83.480675,250.678314 84.139145,250.168610 
	C87.359489,246.569016 90.077682,243.173065 92.795883,239.777130 
	C94.690666,237.662735 96.585442,235.548325 99.051720,233.211823 
	C102.488892,229.457855 105.354561,225.925995 108.220230,222.394119 
	C108.220230,222.394119 108.259819,222.264709 108.617889,222.220673 
	C109.374184,221.543076 109.772408,220.909515 110.170631,220.275970 
	C110.170631,220.275970 110.187157,220.182068 110.538506,220.173950 
	C111.306480,219.514877 111.723106,218.863922 112.139725,218.212967 
	C112.139725,218.212967 112.146126,218.136475 112.521019,218.129974 
	C116.329048,213.852844 119.762192,209.582230 123.195335,205.311600 
	C123.195335,205.311600 123.191048,205.209015 123.537048,205.164398 
	C124.303413,204.494980 124.723770,203.870193 125.144127,203.245407 
	C125.953445,202.315170 126.762756,201.384949 128.088715,200.179642 
	C132.432205,195.309860 136.259048,190.715164 140.085892,186.120453 
	C140.868805,185.189819 141.651718,184.259186 142.978058,183.103409 
	C145.744827,180.020447 147.968201,177.162643 150.191559,174.304825 
	C150.191559,174.304825 150.198944,174.201187 150.562973,174.186310 
	C151.320908,173.497803 151.714798,172.824188 152.108688,172.150574 
	C152.108688,172.150574 152.074799,172.066055 152.454224,172.084839 
	C156.100204,168.606049 159.242538,164.978394 162.697845,161.678452 
	C163.982498,160.451523 165.999969,159.991943 167.683273,159.182434 
	C168.000916,159.327316 168.318573,159.472214 168.874863,160.102402 
	C174.315018,165.119949 179.516525,169.652191 184.718033,174.184433 
	C184.718033,174.184433 184.811203,174.170670 184.823532,174.527893 
	C185.481049,175.305969 186.126251,175.726822 186.771423,176.147675 
	C189.024551,178.271805 191.277679,180.395950 193.820740,183.056259 
	C199.087585,190.130554 202.089752,189.534698 203.177536,184.259705 
	C203.177536,184.259705 203.155273,184.173630 203.519745,184.168274 
	C204.290070,183.490494 204.695923,182.818054 205.101776,182.145615 
	C206.444183,180.692139 207.786591,179.238678 209.653351,177.456787 
	C214.417480,172.050995 218.657303,166.973663 222.897125,161.896332 
	C222.897125,161.896332 222.999390,162.000000 223.291641,161.981720 
	C223.986099,161.233597 224.388306,160.503769 224.790512,159.773941 
	C224.790512,159.773941 225.076477,159.454330 225.594254,159.324570 
	C228.131332,156.547592 230.150620,153.900360 232.169907,151.253128 
	C232.169907,151.253128 232.156479,151.165985 232.539215,151.146332 
	C233.592453,150.062286 234.262955,148.997894 234.933472,147.933517 
	C234.933472,147.933517 235.000000,147.999390 235.308807,147.974518 
	C236.035660,147.252075 236.453720,146.554489 236.871780,145.856918 
	C236.969376,145.537491 237.157608,145.285858 237.971756,145.019226 
	C239.082336,144.094971 239.657608,143.253479 240.232880,142.411987 
	C240.232880,142.411987 240.266708,142.274139 240.655487,142.169800 
	C243.218353,138.785019 240.624634,137.873428 238.414032,136.771469 
	C238.414032,136.771469 238.277634,136.740570 238.217636,136.392761 
	C237.561264,135.631592 236.964874,135.218231 236.368500,134.804855 
	C236.063354,134.627579 235.758194,134.450317 235.204041,133.803253 
	C234.250290,132.946533 233.545532,132.559616 232.840790,132.172699 
	C232.840790,132.172699 232.925430,132.055527 233.124054,131.778015 
	C246.887085,129.000397 260.451477,126.500275 274.015869,124.000153 
	C274.075439,136.700577 274.134979,149.400986 273.760498,162.587921 
	C272.433990,163.507462 271.541534,163.940491 270.649078,164.373535 
	C268.870331,162.800156 267.091553,161.226776 265.123779,159.133209 
	C264.311646,158.271790 263.688568,157.930557 263.065460,157.589340 
	C262.020264,158.482605 260.975098,159.375870 259.399841,160.602875 
	C254.646729,166.047775 250.423645,171.158936 246.200562,176.270081 
	C246.200562,176.270081 245.977234,176.636597 245.457214,176.755676 
	C242.905899,179.496414 240.874603,182.118103 238.843292,184.739777 
	C238.843292,184.739761 238.873703,184.853714 238.472778,184.863068 
	C237.406693,185.943100 236.741531,187.013763 236.076355,188.084427 
	C236.076370,188.084427 235.998062,188.005844 235.694443,188.018433 
	C234.981537,188.740372 234.572250,189.449707 234.162964,190.159042 
	C234.162964,190.159042 234.000000,190.000610 233.747055,190.066132 
	C232.604645,191.318924 231.715179,192.506195 230.825714,193.693451 
	C230.825714,193.693451 230.858353,193.830566 230.454468,193.870453 
	C227.085098,197.659897 224.119583,201.409454 221.154068,205.159012 
	C221.154068,205.159012 221.001831,204.999390 220.732590,205.034668 
	C220.046265,205.780731 219.629181,206.491516 219.212097,207.202301 
	C219.212097,207.202301 219.007553,207.006714 218.758224,207.071381 
	C214.716522,211.817337 210.924149,216.498627 207.131775,221.179916 
	C206.362183,222.093933 205.592560,223.007935 204.144150,224.008438 
	C201.308304,223.260437 199.029312,222.645325 197.026962,221.532440 
	C194.831024,220.311966 192.890213,218.632431 190.838226,217.152939 
	C190.838226,217.152939 191.001831,217.004120 190.977127,216.737717 
	C190.232101,216.051483 189.511780,215.631668 188.791458,215.211838 
	C188.791458,215.211838 189.006699,215.031494 188.954178,214.770660 
	C188.195297,214.081635 187.488937,213.653473 186.782578,213.225296 
	C186.782578,213.225296 187.002502,213.035995 186.945312,212.777130 
	C186.181335,212.095917 185.474548,211.673553 184.767761,211.251190 
	C184.767761,211.251190 184.973053,211.049789 184.911697,210.791779 
	C184.153473,210.111252 183.456604,209.688721 182.759735,209.266190 
	C182.759735,209.266190 182.944778,209.057144 182.889603,208.801407 
	C182.139557,208.126755 181.444702,207.707840 180.749832,207.288925 
	C180.749832,207.288925 180.887756,207.096054 180.836456,206.822266 
	C180.083664,206.116104 179.382172,205.683701 178.680679,205.251312 
	C178.291290,204.847137 177.901901,204.442978 177.291412,203.530106 
	C176.455795,202.640274 175.841278,202.259125 175.226761,201.877975 
	C174.918930,201.727264 174.611099,201.576553 174.170868,200.874939 
	C173.340164,199.898544 172.641846,199.473083 171.943527,199.047623 
	C171.943527,199.047623 171.999390,199.000458 171.999573,198.669800 
	C168.114166,193.691406 167.637650,193.682281 165.154022,198.208008 
	C164.123138,199.308624 163.092255,200.409256 161.446793,201.709503 
	C157.301102,206.343933 153.769989,210.778717 150.238876,215.213501 
	C150.238876,215.213501 149.997742,215.063660 149.785233,215.108368 
	C148.644836,216.286041 147.716965,217.419006 146.789093,218.551971 
	C146.789093,218.551971 146.775574,218.744156 146.364075,218.846283 
	C143.038300,222.700073 140.124039,226.451736 137.209763,230.203400 
	C137.209763,230.203400 137.003052,230.001831 136.769379,230.034119 
	C135.980606,230.942505 135.425507,231.818619 134.870422,232.694748 
	C133.758224,233.996429 132.646027,235.298126 130.953781,236.803070 
	C127.510406,240.520950 124.647079,244.035599 121.783752,247.550247 
	C121.783752,247.550247 121.752220,247.748856 121.363022,247.780945 
	C120.593079,248.435730 120.212341,249.058426 119.831612,249.681122 
	C119.831612,249.681122 119.818039,249.835800 119.439758,249.832458 
	C118.662659,250.474213 118.263832,251.119308 117.865005,251.764404 
	C117.865005,251.764404 117.859581,251.877762 117.466431,251.872833 
	C113.005554,256.806213 108.937813,261.744537 104.870071,266.682861 
z"/>
<path fill="#F8F8F8" opacity="1.000000" stroke="none" 
	d="
M229.996552,229.000610 
	C228.569519,216.505310 230.772659,205.989624 240.918076,197.929047 
	C244.748306,194.885910 247.488892,190.476089 250.748642,186.708725 
	C253.983795,182.969772 257.247162,179.255264 261.183533,174.744690 
	C261.183533,211.897385 261.183533,248.256836 261.183533,284.979492 
	C251.097565,284.979492 240.725906,284.979492 229.995605,284.979492 
	C229.995605,266.327698 229.995605,247.914062 229.996552,229.000610 
z"/>
<path fill="#F5F5F5" opacity="1.000000" stroke="none" 
	d="
M175.537552,270.986084 
	C175.537491,275.798676 175.537491,280.114655 175.537491,284.895142 
	C164.523590,284.895142 153.829361,284.895142 142.538422,284.895142 
	C142.538422,273.609985 143.101913,262.466553 142.356064,251.411438 
	C141.782928,242.916473 144.241470,236.541321 150.263779,230.657471 
	C156.646072,224.421875 162.243439,217.382874 168.151184,210.731277 
	C174.068939,213.363739 175.977341,217.573105 175.754608,224.034821 
	C175.221436,239.503799 175.554321,255.002655 175.537552,270.986084 
z"/>
<path fill="#F1F1F1" opacity="1.000000" stroke="none" 
	d="
M208.481140,235.583221 
	C211.814453,231.793213 214.883286,228.272552 217.952118,224.751877 
	C218.304581,224.939804 218.657043,225.127747 219.009506,225.315674 
	C219.009506,227.905487 219.014923,230.495316 219.008621,233.085114 
	C218.970200,248.899033 218.805588,264.714325 218.979446,280.525879 
	C219.020752,284.281982 217.938568,285.476074 214.217300,285.390137 
	C205.114349,285.179993 196.003296,285.321564 186.747650,285.321564 
	C186.747650,265.922272 186.747650,247.075867 186.747650,228.229446 
	C187.337814,227.777023 187.927979,227.324600 188.518143,226.872192 
	C190.894165,229.824997 193.062439,232.979462 195.690857,235.687286 
	C200.671173,240.818100 202.815384,240.731400 208.481140,235.583221 
z"/>
<path fill="#25E184" opacity="1.000000" stroke="none" 
	d="
M325.130280,208.041077 
	C325.079865,207.589111 325.029449,207.137131 325.422913,206.259201 
	C326.242065,203.878937 326.617371,201.924637 327.327026,199.981140 
	C328.107208,199.994431 328.552979,199.996918 329.273407,200.246185 
	C329.647644,203.676849 330.012939,206.878998 329.795471,210.041077 
	C329.213623,218.500992 328.438507,226.949142 327.634674,235.391922 
	C326.694580,245.265793 332.622223,251.797501 338.741058,258.143127 
	C341.211761,260.705414 344.236115,262.733826 347.003052,265.381042 
	C346.729828,266.701813 346.637024,267.745453 346.168030,268.576904 
	C339.547943,280.312775 333.595276,292.506317 324.237701,302.440796 
	C321.195679,305.670349 318.633881,310.121704 312.975830,308.600098 
	C313.993805,299.445648 315.002411,290.716003 316.347717,281.929077 
	C317.110138,280.922729 317.535858,279.973633 317.973480,278.643921 
	C317.985291,277.501831 317.985199,276.740295 318.255127,275.726624 
	C318.661743,273.991486 318.798370,272.508575 318.951294,270.605530 
	C318.972290,268.781403 318.977051,267.377380 319.267242,265.691772 
	C321.358826,252.159760 323.382141,238.933655 324.870667,225.647659 
	C325.521118,219.841980 325.077209,213.913681 325.130280,208.041077 
z"/>
<path fill="#2168A1" opacity="1.000000" stroke="none" 
	d="
M94.087250,145.025848 
	C91.065254,152.136505 87.811012,159.159058 85.072601,166.377274 
	C80.287193,178.991226 78.303543,192.172119 77.488113,205.608170 
	C77.315903,208.445602 76.028152,211.697418 74.198105,213.867554 
	C66.813454,222.624680 58.986588,231.007690 51.393074,239.590820 
	C49.775345,241.419373 48.451164,243.507629 46.991749,245.476242 
	C46.312717,245.191483 45.633686,244.906723 44.954655,244.621948 
	C43.866310,239.939636 42.457928,235.304092 41.764904,230.563995 
	C40.734707,223.517700 39.494125,216.387634 39.591103,209.310318 
	C40.089260,172.957138 49.842701,139.623260 72.221718,110.343102 
	C90.682678,86.189224 113.946426,68.485817 141.976028,57.083214 
	C149.193863,54.146961 156.962341,52.564255 164.594055,50.900654 
	C157.300827,53.959915 149.791153,56.223957 142.519043,59.090664 
	C138.054398,60.850651 133.953415,63.533146 129.409241,65.815979 
	C128.753876,65.883690 128.378418,65.936806 127.676003,66.017746 
	C126.787819,66.644920 126.226593,67.244263 125.385979,67.838417 
	C124.739571,67.894157 124.372551,67.955078 123.681633,68.045685 
	C122.811424,68.673515 122.265099,69.271660 121.426239,69.874001 
	C120.750572,69.949272 120.367462,70.020340 119.749100,70.156158 
	C119.205429,70.369133 118.982971,70.600189 118.533295,71.062286 
	C114.746887,73.778435 111.273682,76.346352 107.502495,79.063423 
	C98.756279,86.790321 90.308052,94.368073 81.587646,102.138275 
	C79.641014,104.590309 77.831291,106.763138 76.316383,109.125061 
	C70.809830,117.710396 65.401962,126.359016 59.657848,135.182495 
	C47.659546,158.928192 41.184948,183.625961 42.875599,210.577438 
	C42.789871,220.566544 43.720592,229.945175 46.597408,239.012207 
	C47.145081,239.253555 47.692753,239.494904 48.240425,239.736252 
	C56.516762,230.204239 64.793098,220.672211 73.353958,210.973877 
	C74.106567,209.869843 74.574638,208.932114 75.062057,207.601868 
	C75.093575,206.161545 75.105743,205.113770 75.371231,203.756927 
	C75.736870,200.961914 75.849190,198.475967 75.991882,195.565216 
	C76.055305,193.437439 76.088348,191.734436 76.369675,189.762177 
	C78.403793,181.327576 80.189629,173.162262 82.242607,164.809082 
	C82.932060,163.384171 83.354370,162.147095 83.960510,160.644882 
	C84.484657,159.606659 84.824966,158.833588 85.397415,157.881073 
	C85.748787,157.135162 85.868004,156.568695 86.243698,155.849991 
	C86.688927,155.147507 86.877670,154.597244 87.053062,154.020966 
	C87.039703,153.994919 87.046333,154.049774 87.316895,153.862778 
	C88.079079,152.463699 88.570694,151.251633 89.043869,150.014984 
	C89.025429,149.990402 89.041740,150.048080 89.310501,149.862869 
	C90.410728,148.130310 91.242195,146.582962 92.409058,145.024170 
	C93.192039,145.017090 93.639641,145.021469 94.087250,145.025848 
z"/>
<path fill="#0DA4C3" opacity="1.000000" stroke="none" 
	d="
M140.133759,98.450951 
	C140.039139,98.734634 139.850632,98.925690 138.962891,98.992096 
	C137.560455,98.948708 136.763367,98.937355 135.976685,98.559906 
	C136.428162,96.955643 136.581284,95.488106 137.355911,94.515602 
	C143.528885,86.765709 149.738052,79.041321 156.098343,71.444939 
	C161.936157,64.472588 167.975830,57.669266 173.936920,50.530029 
	C174.024551,49.748264 174.101822,49.227932 174.179092,48.707596 
	C175.209717,48.626690 176.240341,48.545788 177.655472,48.948627 
	C177.577393,60.363853 182.960464,70.946449 179.600922,82.079384 
	C167.905426,86.019951 156.567230,89.834007 145.319946,93.899590 
	C144.014984,94.371284 143.214203,96.237793 142.179672,97.457642 
	C142.068817,97.778450 141.850861,97.987701 141.171051,97.900711 
	C140.588791,97.961006 140.361267,98.205978 140.133759,98.450951 
z"/>
<path fill="#10B3C9" opacity="1.000000" stroke="none" 
	d="
M159.032654,358.804108 
	C158.602356,358.765717 158.172043,358.727356 157.328918,358.248077 
	C153.609512,356.488708 150.302917,355.170258 146.997604,353.398834 
	C146.996811,345.959930 146.994751,338.973969 147.260529,331.795593 
	C150.024658,329.379730 152.520935,327.156311 155.425644,324.924713 
	C160.219040,325.286255 164.603989,325.655945 169.161835,326.333679 
	C170.554428,328.870514 172.360580,330.975159 172.864258,333.355438 
	C173.745422,337.519623 173.345612,341.970764 174.353409,346.088562 
	C175.944138,352.588043 172.558105,357.778320 165.455627,358.081543 
	C163.049515,358.321167 161.041077,358.562653 159.032654,358.804108 
z"/>
<path fill="#16C294" opacity="1.000000" stroke="none" 
	d="
M266.913849,309.797272 
	C270.653870,307.105286 274.393860,304.413300 278.510986,302.050354 
	C276.849091,304.437134 274.720154,306.415405 272.805603,308.583038 
	C271.701965,309.832550 270.004669,311.543396 270.208405,312.776642 
	C270.813873,316.440979 271.990356,320.067230 273.380737,323.533020 
	C275.745026,329.426514 278.443085,335.186127 280.775970,341.265930 
	C276.876862,343.345703 273.350647,345.627869 269.489105,346.853088 
	C265.177399,348.221191 261.045197,351.833618 256.008179,348.677795 
	C256.000275,347.881012 255.995865,347.425720 255.991791,346.537537 
	C254.331451,339.744507 252.670792,333.384308 251.007782,326.619690 
	C251.007812,325.136719 251.010193,324.058167 251.311478,322.824524 
	C254.940552,320.102661 258.333160,317.611755 261.577148,314.940338 
	C263.478424,313.374573 265.142853,311.521240 266.913849,309.797272 
z"/>
<path fill="#30C87E" opacity="1.000000" stroke="none" 
	d="
M312.966461,309.024872 
	C318.633881,310.121704 321.195679,305.670349 324.237701,302.440796 
	C333.595276,292.506317 339.547943,280.312775 346.168030,268.576904 
	C346.637024,267.745453 346.729828,266.701813 347.047241,265.014709 
	C353.860229,247.930740 358.622437,231.108719 357.958405,213.244675 
	C357.455231,199.708908 357.385437,186.026001 355.218231,172.718765 
	C352.900726,158.488892 347.089569,145.079208 340.422119,132.221771 
	C339.529755,130.500961 337.515350,129.361984 335.970398,127.581543 
	C334.462799,123.830795 333.051239,120.431221 331.528717,117.082077 
	C330.752441,115.374580 329.776978,113.757660 328.961670,112.035126 
	C329.031799,111.970474 329.172455,111.841522 329.172455,111.841522 
	C333.938843,118.727219 339.468903,125.212196 343.330933,132.572433 
	C355.782562,156.302536 361.020721,181.638885 360.927948,208.584549 
	C360.828583,237.439758 353.416565,263.896210 338.610748,288.220337 
	C327.760284,306.046326 314.212280,321.776398 296.267456,333.358185 
	C295.940582,333.190887 295.871185,332.915375 296.044922,332.651550 
	C297.147827,331.258850 298.076965,330.129913 299.306030,328.851410 
	C307.341583,324.371368 310.661438,317.042664 312.966461,309.024872 
z"/>
<path fill="#14C2A6" opacity="1.000000" stroke="none" 
	d="
M251.012573,322.979614 
	C251.010193,324.058167 251.007812,325.136719 250.697632,326.780334 
	C250.396713,331.082428 249.684830,335.013580 250.625854,338.498352 
	C251.458176,341.580597 254.131134,344.165771 255.991455,346.970398 
	C255.995865,347.425720 256.000275,347.881012 255.744751,348.894989 
	C254.520126,350.764740 253.814224,352.825806 252.547943,353.262695 
	C245.440308,355.714966 238.197632,357.775818 231.074097,359.606140 
	C231.583221,356.493774 233.208527,353.173096 232.216599,351.112091 
	C229.898148,346.294861 229.440231,341.600403 229.930771,336.475525 
	C230.309525,332.518738 228.099686,330.399261 224.164719,329.992584 
	C221.776840,329.745819 219.401398,329.378906 217.042862,328.832367 
	C217.115616,328.289948 217.132309,327.979340 217.115433,327.666901 
	C218.464111,327.424347 219.812775,327.181763 221.890625,327.006531 
	C223.048843,327.128754 223.477921,327.183594 224.211594,327.453857 
	C230.997025,326.159363 237.453598,324.530212 243.971924,323.204681 
	C246.240250,322.743408 248.661285,323.032959 251.012573,322.979614 
z"/>
<path fill="#0EB0C1" opacity="1.000000" stroke="none" 
	d="
M179.985352,82.027885 
	C182.960464,70.946449 177.577393,60.363853 178.015961,49.102646 
	C178.191544,48.700375 178.391129,48.627834 178.972656,48.685200 
	C179.354614,48.815109 179.683640,48.954479 180.120468,48.972839 
	C183.367889,48.727158 186.178497,48.463116 189.319794,48.438644 
	C193.435913,48.787361 197.221313,48.896503 201.002991,49.412289 
	C201.000702,52.545712 200.746872,55.303108 201.069351,57.991375 
	C201.456329,61.217144 202.802582,64.371719 202.886642,67.579308 
	C203.003036,72.021324 202.330078,76.484024 201.528992,80.955612 
	C194.037033,81.324867 187.011185,81.676376 179.985352,82.027885 
z"/>
<path fill="#15C68F" opacity="1.000000" stroke="none" 
	d="
M299.006104,329.000977 
	C298.076965,330.129913 297.147827,331.258850 295.694580,332.687561 
	C290.447296,335.658905 285.724091,338.330444 281.000916,341.001984 
	C278.443085,335.186127 275.745026,329.426514 273.380737,323.533020 
	C271.990356,320.067230 270.813873,316.440979 270.208405,312.776642 
	C270.004669,311.543396 271.701965,309.832550 272.805603,308.583038 
	C274.720154,306.415405 276.849091,304.437134 278.875122,302.005859 
	C279.487244,300.879517 280.112396,300.126740 281.331665,299.199982 
	C284.619720,297.347443 287.313599,295.668884 290.005249,294.456848 
	C290.002411,297.407043 290.079803,299.893799 289.981445,302.373596 
	C289.858795,305.466248 288.204376,310.021027 289.638275,311.375763 
	C294.543732,316.010437 295.861053,321.847015 297.524902,327.758270 
	C297.669189,328.270874 298.496216,328.591278 299.006104,329.000977 
z"/>
<path fill="#12B8C0" opacity="1.000000" stroke="none" 
	d="
M165.853333,358.083374 
	C172.558105,357.778320 175.944138,352.588043 174.353409,346.088562 
	C173.345612,341.970764 173.745422,337.519623 172.864258,333.355438 
	C172.360580,330.975159 170.554428,328.870514 169.565063,326.324707 
	C176.216171,327.032562 182.636948,328.057465 189.348984,329.193024 
	C190.425217,329.576660 191.210175,329.849609 192.072968,330.471161 
	C192.986893,333.086945 195.033051,335.760010 194.434006,337.545715 
	C192.577484,343.079681 195.005112,347.884918 195.837906,352.953705 
	C196.745590,358.478302 193.900787,361.828979 187.534744,362.047729 
	C184.113068,362.299164 181.075912,362.546692 178.038757,362.794250 
	C176.985291,362.788452 175.931808,362.782684 174.449890,362.292114 
	C172.726715,361.214325 171.432861,360.619446 170.137085,360.028778 
	C168.710098,359.378265 167.281326,358.731659 165.853333,358.083374 
z"/>
<path fill="#12BCB7" opacity="1.000000" stroke="none" 
	d="
M187.919250,362.043854 
	C193.900787,361.828979 196.745590,358.478302 195.837906,352.953705 
	C195.005112,347.884918 192.577484,343.079681 194.434006,337.545715 
	C195.033051,335.760010 192.986893,333.086945 192.315109,330.436340 
	C192.479416,330.052917 192.967499,330.025177 193.436218,330.026947 
	C198.918137,330.011414 203.931335,329.994110 209.288254,329.988708 
	C210.089951,330.000793 210.547928,330.001007 211.173126,330.326324 
	C212.209076,332.010498 213.665161,333.294037 213.851105,334.740875 
	C215.055206,344.109375 215.982498,353.513489 216.600830,362.927551 
	C215.133591,362.957550 214.066040,362.965851 212.568024,362.969971 
	C209.744507,363.571869 207.351456,364.178040 204.958405,364.784180 
	C201.608292,364.822510 198.258179,364.860840 194.369354,364.660767 
	C193.550262,364.514282 193.269897,364.606232 192.989517,364.698181 
	C191.628860,364.713226 190.268188,364.728241 188.492462,364.318176 
	C188.024689,363.276703 187.971970,362.660278 187.919250,362.043854 
z"/>
<path fill="#18ADE3" opacity="1.000000" stroke="none" 
	d="
M173.926575,50.791470 
	C167.975830,57.669266 161.936157,64.472588 156.098343,71.444939 
	C149.738052,79.041321 143.528885,86.765709 137.355911,94.515602 
	C136.581284,95.488106 136.428162,96.955643 135.779022,98.818924 
	C134.043289,100.275841 132.515640,101.107651 130.997437,101.571686 
	C133.409470,93.476547 141.282959,88.346489 140.799423,78.983757 
	C140.635147,75.802628 141.881027,73.280746 139.896561,69.607239 
	C137.101135,64.432495 133.118469,66.782021 129.689133,65.801392 
	C133.953415,63.533146 138.054398,60.850651 142.519043,59.090664 
	C149.791153,56.223957 157.300827,53.959915 164.888870,51.096245 
	C165.684067,50.671757 166.300644,50.592579 167.666443,50.662128 
	C170.252640,50.804398 172.089600,50.797935 173.926575,50.791470 
z"/>
<path fill="#12B5AC" opacity="1.000000" stroke="none" 
	d="
M201.006714,49.005646 
	C197.221313,48.896503 193.435913,48.787361 189.348480,48.204559 
	C189.111298,47.429092 189.156570,47.124382 189.182281,46.816772 
	C197.135132,46.751350 205.087997,46.685932 213.665466,47.039646 
	C215.911240,47.579250 217.532364,47.699722 219.153503,47.820194 
	C222.469818,48.108383 225.786118,48.396572 229.644653,49.074295 
	C230.817169,49.586349 231.447449,49.708874 232.077744,49.831402 
	C237.683380,51.240448 243.289017,52.649498 248.994873,54.472462 
	C249.095108,54.886375 248.948624,55.080620 248.536865,55.054199 
	C245.231064,54.452091 242.350159,53.581909 239.436203,53.451740 
	C238.335541,53.402573 236.301071,54.944305 236.158890,55.965111 
	C235.381363,61.547718 235.092438,67.196877 234.569977,72.817062 
	C234.243225,76.332069 233.800873,79.836327 233.344360,83.938713 
	C233.692734,84.314430 234.846786,85.559029 235.626984,86.809456 
	C234.027710,86.620735 232.802277,86.426170 231.576843,86.231606 
	C229.982834,86.085289 228.388824,85.938972 226.312042,85.338760 
	C223.573410,84.519981 221.317535,84.155090 219.061661,83.790192 
	C217.342987,83.787781 215.624298,83.785370 213.491364,83.388763 
	C213.058792,82.640388 213.040482,82.286201 213.322357,81.661369 
	C215.758133,81.256363 217.930527,81.311928 220.013901,80.908119 
	C221.067154,80.703957 222.765854,79.702850 222.795242,79.004135 
	C223.006927,73.972809 222.881317,68.926453 222.829117,63.885223 
	C222.804092,61.469379 222.432419,59.022350 222.709671,56.646858 
	C223.065048,53.601654 222.724930,51.273998 219.151672,50.877193 
	C213.108597,50.206123 207.055557,49.624737 201.006714,49.005646 
z"/>
<path fill="#11CE93" opacity="1.000000" stroke="none" 
	d="
M285.654297,71.756577 
	C285.654297,71.756577 285.822937,71.621460 285.961304,72.051147 
	C287.121582,72.925827 288.143494,73.370811 289.165375,73.815796 
	C289.165375,73.815796 289.109100,73.934853 289.227722,74.152451 
	C289.904755,74.559998 290.463196,74.749954 291.021637,74.939911 
	C291.021637,74.939911 291.026825,74.971230 291.058960,75.322647 
	C294.225983,80.284859 294.645874,83.192871 292.991089,88.097961 
	C290.302734,96.066612 287.650543,104.047478 284.637146,111.978210 
	C280.189026,108.636047 276.086884,105.338867 271.997681,101.641998 
	C272.135223,100.591377 272.219727,99.929695 272.390533,99.291100 
	C275.065521,89.291161 279.648529,79.710205 279.247925,68.866089 
	C279.648773,68.469566 279.831787,68.195335 280.014801,67.921097 
	C280.676727,68.226402 281.338684,68.531715 282.148407,69.518967 
	C283.415558,70.719467 284.534943,71.238022 285.654297,71.756577 
z"/>
<path fill="#0FC89A" opacity="1.000000" stroke="none" 
	d="
M279.030090,68.988373 
	C279.648529,79.710205 275.065521,89.291161 272.390533,99.291100 
	C272.219727,99.929695 272.135223,100.591377 271.624847,101.623566 
	C267.498291,99.988388 263.757507,97.971962 259.946350,95.608017 
	C257.475128,93.133171 256.166077,90.761330 257.917847,87.545578 
	C261.189972,81.538887 262.550323,75.074257 262.430450,68.262283 
	C262.422211,67.793709 262.794373,67.328918 262.844971,66.847191 
	C263.269928,62.800755 265.418274,62.404591 268.730469,63.845814 
	C271.995117,65.266335 275.363403,66.448639 278.686218,67.735458 
	C278.686218,67.735458 278.831787,67.573845 278.924286,67.946091 
	C279.021210,68.541679 279.025665,68.765022 279.030090,68.988373 
z"/>
<path fill="#10C0A1" opacity="1.000000" stroke="none" 
	d="
M278.553223,67.392014 
	C275.363403,66.448639 271.995117,65.266335 268.730469,63.845814 
	C265.418274,62.404591 263.269928,62.800755 262.844971,66.847191 
	C262.794373,67.328918 262.422211,67.793709 262.430450,68.262283 
	C262.550323,75.074257 261.189972,81.538887 257.917847,87.545578 
	C256.166077,90.761330 257.475128,93.133171 259.582092,95.578194 
	C258.109497,95.638123 256.930847,95.380356 255.752182,95.122589 
	C255.348984,94.990067 254.945801,94.857544 254.163086,94.239639 
	C252.362656,93.246666 250.941757,92.739059 249.520844,92.231453 
	C249.164001,92.217506 248.807175,92.203560 248.120239,91.808006 
	C247.530731,90.954544 247.271332,90.482689 247.250366,89.797012 
	C247.824600,83.060913 248.200165,76.540352 248.483261,70.015778 
	C248.699158,65.040031 248.797806,60.059193 248.948624,55.080620 
	C248.948624,55.080620 249.095108,54.886375 249.166092,54.787071 
	C257.453613,57.859360 265.690460,60.980156 273.869537,64.245544 
	C275.499603,64.896339 276.909027,66.099899 278.553223,67.392014 
z"/>
<path fill="#13CE89" opacity="1.000000" stroke="none" 
	d="
M284.983124,112.023193 
	C287.650543,104.047478 290.302734,96.066612 292.991089,88.097961 
	C294.645874,83.192871 294.225983,80.284859 291.074829,75.323425 
	C294.512054,77.623169 297.965546,80.273567 301.713135,83.490295 
	C303.777313,85.340134 305.547363,86.623650 307.317444,87.907166 
	C307.628296,87.909760 307.854187,88.049599 308.013763,88.907379 
	C308.026428,89.990295 308.020447,90.492531 307.613098,91.006195 
	C306.142517,92.369720 304.689362,93.571609 304.088684,95.107002 
	C303.027161,97.820473 302.462677,100.731339 301.731934,103.570335 
	C301.122864,105.936729 300.609955,108.328156 299.984039,110.689819 
	C299.614990,112.082214 299.109924,113.438614 298.663971,114.810524 
	C297.772980,117.551476 296.880524,120.291946 295.692261,122.879761 
	C291.924927,119.158997 288.454041,115.591095 284.983124,112.023193 
z"/>
<path fill="#1983A1" opacity="1.000000" stroke="none" 
	d="
M189.057724,329.082336 
	C182.636948,328.057465 176.216171,327.032562 169.392166,326.016663 
	C164.603989,325.655945 160.219040,325.286255 155.282761,324.613770 
	C145.499557,318.507324 136.267685,312.703705 126.803558,306.636871 
	C124.350327,306.438446 121.209908,305.581299 120.064049,306.724121 
	C114.446152,312.326996 109.249138,318.371399 104.192909,324.498688 
	C103.354324,325.514923 103.274513,328.738525 103.986618,329.207611 
	C110.819740,333.709015 117.898300,337.837860 125.023537,342.282806 
	C125.344017,342.752380 125.602722,342.933899 126.089844,343.337585 
	C133.174133,347.042938 140.085236,350.447357 146.996338,353.851807 
	C150.302917,355.170258 153.609512,356.488708 157.026489,358.128632 
	C152.809830,357.225098 148.464508,356.060822 144.159256,354.763580 
	C132.302261,351.190887 107.853714,336.880829 98.288490,327.837158 
	C99.766472,325.960083 101.186974,323.960022 102.805580,322.135681 
	C108.534981,315.678101 114.391342,309.332336 120.072563,302.833130 
	C122.158447,300.446930 123.577919,299.745209 126.517288,302.179626 
	C138.867325,312.408051 152.761383,319.771790 168.555511,323.214050 
	C175.125107,324.645844 181.707535,326.018707 188.685730,327.833801 
	C189.074875,328.526886 189.065002,328.804565 189.057724,329.082336 
z"/>
<path fill="#10BCA8" opacity="1.000000" stroke="none" 
	d="
M248.536865,55.054199 
	C248.797806,60.059193 248.699158,65.040031 248.483261,70.015778 
	C248.200165,76.540352 247.824600,83.060913 246.862350,89.778107 
	C243.718826,89.379700 241.201752,88.786400 238.684692,88.193100 
	C238.684692,88.193100 238.301804,88.216331 237.979568,87.857971 
	C237.105164,87.267616 236.552994,87.035614 236.000824,86.803619 
	C234.846786,85.559029 233.692734,84.314430 233.344360,83.938713 
	C233.800873,79.836327 234.243225,76.332069 234.569977,72.817062 
	C235.092438,67.196877 235.381363,61.547718 236.158890,55.965111 
	C236.301071,54.944305 238.335541,53.402573 239.436203,53.451740 
	C242.350159,53.581909 245.231064,54.452091 248.536865,55.054199 
z"/>
<path fill="#1DBD7B" opacity="1.000000" stroke="none" 
	d="
M284.637146,111.978210 
	C288.454041,115.591095 291.924927,119.158997 295.846985,123.177887 
	C299.528564,127.757835 302.759033,131.886810 306.146484,136.323822 
	C317.700073,156.274734 327.091248,176.572662 326.992676,199.970352 
	C326.617371,201.924637 326.242065,203.878937 325.505493,205.926270 
	C323.642609,196.195175 322.482178,186.303467 320.553619,176.563843 
	C318.098724,164.165909 312.833496,152.805862 306.229645,142.063629 
	C293.834229,121.900337 276.701141,106.883133 255.857635,95.451736 
	C256.930847,95.380356 258.109497,95.638123 259.652405,95.925705 
	C263.757507,97.971962 267.498291,99.988388 271.611938,102.023254 
	C276.086884,105.338867 280.189026,108.636047 284.637146,111.978210 
z"/>
<path fill="#1DBD7B" opacity="1.000000" stroke="none" 
	d="
M290.007507,293.990295 
	C287.313599,295.668884 284.619720,297.347443 281.579285,299.031677 
	C287.813660,291.645508 294.817322,284.582458 300.879272,276.787109 
	C310.694855,264.164825 317.351746,249.821457 320.740112,234.177261 
	C322.556488,225.791092 323.411682,217.196762 324.915466,208.368713 
	C325.077209,213.913681 325.521118,219.841980 324.870667,225.647659 
	C323.382141,238.933655 321.358826,252.159760 318.997437,265.422699 
	C317.995789,263.042450 317.549438,260.649689 317.103058,258.256927 
	C316.622711,258.202026 316.142334,258.147125 315.661957,258.092224 
	C309.310394,271.678680 300.031708,283.109070 290.007507,293.990295 
z"/>
<path fill="#1AB595" opacity="1.000000" stroke="none" 
	d="
M280.775970,341.265930 
	C285.724091,338.330444 290.447296,335.658905 295.520813,332.951355 
	C295.871185,332.915375 295.940582,333.190887 295.937836,333.332520 
	C289.548584,337.783417 283.453979,342.631104 276.712677,346.285889 
	C264.060852,353.144928 250.843674,358.782410 236.458893,361.089172 
	C232.908340,361.658539 229.373077,362.323273 225.397995,362.552063 
	C224.980774,361.783875 224.996353,361.407806 225.394745,361.015930 
	C227.518723,360.656860 229.259888,360.313538 231.001038,359.970245 
	C238.197632,357.775818 245.440308,355.714966 252.547943,353.262695 
	C253.814224,352.825806 254.520126,350.764740 255.748215,349.236450 
	C261.045197,351.833618 265.177399,348.221191 269.489105,346.853088 
	C273.350647,345.627869 276.876862,343.345703 280.775970,341.265930 
z"/>
<path fill="#1C8DA6" opacity="1.000000" stroke="none" 
	d="
M213.022186,81.932022 
	C213.040482,82.286201 213.058792,82.640388 213.081299,83.259674 
	C208.787506,83.589180 204.484634,83.817497 200.192368,83.689636 
	C181.451126,83.131363 163.874054,87.608093 147.093216,95.685112 
	C145.754639,96.329391 144.331070,96.797104 142.563339,97.402252 
	C143.214203,96.237793 144.014984,94.371284 145.319946,93.899590 
	C156.567230,89.834007 167.905426,86.019951 179.600922,82.079384 
	C187.011185,81.676376 194.037033,81.324867 201.969788,80.976730 
	C206.258545,81.297409 209.640366,81.614716 213.022186,81.932022 
z"/>
<path fill="#2A84B3" opacity="1.000000" stroke="none" 
	d="
M130.987976,101.939453 
	C132.515640,101.107651 134.043289,100.275841 135.768616,99.185028 
	C136.763367,98.937355 137.560455,98.948708 138.755783,98.998779 
	C135.893814,101.457245 132.681580,103.944969 129.365005,106.284836 
	C115.507599,116.061348 104.939026,128.888123 94.934830,142.582489 
	C94.293800,142.305069 94.150688,142.155746 94.069427,141.658569 
	C101.432716,132.226562 108.734161,123.142441 116.332123,113.904701 
	C121.415085,109.813881 126.201530,105.876663 130.987976,101.939453 
z"/>
<path fill="#1AB595" opacity="1.000000" stroke="none" 
	d="
M251.311478,322.824524 
	C248.661285,323.032959 246.240250,322.743408 243.971924,323.204681 
	C237.453598,324.530212 230.997025,326.159363 224.249084,327.261108 
	C224.028091,326.603210 224.057449,326.351532 224.070038,326.097931 
	C239.053955,323.190796 252.689148,316.754211 266.557983,309.897491 
	C265.142853,311.521240 263.478424,313.374573 261.577148,314.940338 
	C258.333160,317.611755 254.940552,320.102661 251.311478,322.824524 
z"/>
<path fill="#999999" opacity="1.000000" stroke="none" 
	d="
M274.224762,123.832703 
	C260.451477,126.500275 246.887085,129.000397 233.065430,131.820267 
	C232.955917,131.376617 232.977570,129.999557 233.269882,129.939499 
	C240.803284,128.391373 248.367859,126.995872 255.920563,125.540413 
	C260.882996,124.584122 265.818634,123.471611 270.804993,122.669823 
	C271.932068,122.488609 273.219849,123.307007 274.224762,123.832703 
z"/>
<path fill="#30C87E" opacity="1.000000" stroke="none" 
	d="
M312.211884,92.805038 
	C317.825134,98.919113 323.438385,105.033188 329.112061,111.494392 
	C329.172455,111.841522 329.031799,111.970474 328.642426,111.945694 
	C325.180756,108.937439 322.108459,105.953964 318.877258,102.676003 
	C316.452393,99.280266 314.186371,96.179016 311.992950,93.009293 
	C312.065552,92.940811 312.211884,92.805038 312.211884,92.805038 
z"/>
<path fill="#1983A1" opacity="1.000000" stroke="none" 
	d="
M208.944534,329.976807 
	C203.931335,329.994110 198.918137,330.011414 193.433441,329.764709 
	C192.958542,328.982574 192.955109,328.464508 192.951691,327.946411 
	C198.033676,327.824615 203.115646,327.702820 208.621552,328.034363 
	C209.011841,328.984039 208.978195,329.480438 208.944534,329.976807 
z"/>
<path fill="#999999" opacity="1.000000" stroke="none" 
	d="
M167.652679,158.847244 
	C165.999969,159.991943 163.982498,160.451523 162.697845,161.678452 
	C159.242538,164.978394 156.100204,168.606049 152.492859,172.108902 
	C155.822495,167.606293 159.372284,162.988724 163.276917,158.693741 
	C163.962448,157.939667 166.135834,158.538193 167.652679,158.847244 
z"/>
<path fill="#999999" opacity="1.000000" stroke="none" 
	d="
M222.557251,161.916107 
	C218.657303,166.973663 214.417480,172.050995 209.857910,177.190567 
	C213.764572,172.147171 217.990967,167.041534 222.557251,161.916107 
z"/>
<path fill="#999999" opacity="1.000000" stroke="none" 
	d="
M184.702728,173.852234 
	C179.516525,169.652191 174.315018,165.119949 169.092682,160.247742 
	C174.277054,164.445206 179.482239,168.982620 184.702728,173.852234 
z"/>
<path fill="#AFAFAF" opacity="1.000000" stroke="none" 
	d="
M246.537323,176.210709 
	C250.423645,171.158936 254.646729,166.047775 259.190918,160.881805 
	C255.299362,165.935089 251.086731,171.043213 246.537323,176.210709 
z"/>
<path fill="#AFAFAF" opacity="1.000000" stroke="none" 
	d="
M105.199081,266.675293 
	C108.937813,261.744537 113.005554,256.806213 117.411713,251.857819 
	C113.676125,256.787720 109.602112,261.727722 105.199081,266.675293 
z"/>
<path fill="#1983A1" opacity="1.000000" stroke="none" 
	d="
M165.455643,358.081543 
	C167.281326,358.731659 168.710098,359.378265 170.137085,360.028778 
	C171.432861,360.619446 172.726715,361.214325 174.071930,362.172119 
	C169.207489,361.519379 164.292542,360.501862 159.205124,359.144226 
	C161.041077,358.562653 163.049515,358.321167 165.455643,358.081543 
z"/>
<path fill="#AFAFAF" opacity="1.000000" stroke="none" 
	d="
M90.217575,283.756378 
	C93.708656,279.214813 97.526756,274.625641 101.687157,270.026245 
	C98.201164,274.580261 94.372879,279.144501 90.217575,283.756378 
z"/>
<path fill="#AFAFAF" opacity="1.000000" stroke="none" 
	d="
M207.457062,221.088501 
	C210.924149,216.498627 214.716522,211.817337 218.855927,207.173706 
	C215.396103,211.806595 211.589233,216.401825 207.457062,221.088501 
z"/>
<path fill="#AFAFAF" opacity="1.000000" stroke="none" 
	d="
M190.857605,217.494049 
	C192.890213,218.632431 194.831024,220.311966 197.026962,221.532440 
	C199.029312,222.645325 201.308304,223.260437 203.882904,224.163116 
	C202.620056,227.502731 200.596268,227.305267 198.223587,224.922867 
	C195.822876,222.512329 193.329666,220.193924 190.857605,217.494049 
z"/>
<path fill="#999999" opacity="1.000000" stroke="none" 
	d="
M139.752655,186.162506 
	C136.259048,190.715164 132.432205,195.309860 128.264420,199.922882 
	C131.755463,195.362320 135.587448,190.783432 139.752655,186.162506 
z"/>
<path fill="#AFAFAF" opacity="1.000000" stroke="none" 
	d="
M150.559021,215.119751 
	C153.769989,210.778717 157.301102,206.343933 161.150192,201.854462 
	C157.938492,206.208511 154.408829,210.617249 150.559021,215.119751 
z"/>
<path fill="#999999" opacity="1.000000" stroke="none" 
	d="
M77.439911,256.865356 
	C74.210960,261.239838 70.651802,265.673767 66.772362,270.177002 
	C70.004616,265.805786 73.557159,261.365295 77.439911,256.865356 
z"/>
<path fill="#999999" opacity="1.000000" stroke="none" 
	d="
M122.863586,205.326019 
	C119.762192,209.582230 116.329048,213.852844 112.558296,218.139099 
	C115.657738,213.883270 119.094788,209.611847 122.863586,205.326019 
z"/>
<path fill="#AFAFAF" opacity="1.000000" stroke="none" 
	d="
M221.487823,205.107025 
	C224.119583,201.409454 227.085098,197.659897 230.384094,193.874390 
	C227.752274,197.577332 224.786942,201.316177 221.487823,205.107025 
z"/>
<path fill="#AFAFAF" opacity="1.000000" stroke="none" 
	d="
M137.544006,230.157684 
	C140.124039,226.451736 143.038300,222.700073 146.272018,218.874680 
	C143.687073,222.571289 140.782669,226.341629 137.544006,230.157684 
z"/>
<path fill="#AFAFAF" opacity="1.000000" stroke="none" 
	d="
M122.109520,247.568115 
	C124.647079,244.035599 127.510406,240.520950 130.718689,237.023819 
	C128.187515,240.556213 125.311401,244.071091 122.109520,247.568115 
z"/>
<path fill="#AFAFAF" opacity="1.000000" stroke="none" 
	d="
M78.197510,297.785950 
	C80.712196,294.195526 83.560356,290.618622 86.754929,287.054932 
	C84.244560,290.645294 81.387779,294.222382 78.197510,297.785950 
z"/>
<path fill="#999999" opacity="1.000000" stroke="none" 
	d="
M107.889915,222.376160 
	C105.354561,225.925995 102.488892,229.457855 99.280106,232.969635 
	C101.811195,229.419083 104.685394,225.888641 107.889915,222.376160 
z"/>
<path fill="#999999" opacity="1.000000" stroke="none" 
	d="
M92.455788,239.805481 
	C90.077682,243.173065 87.359489,246.569016 84.298645,249.965958 
	C86.675903,246.589264 89.395805,243.211563 92.455788,239.805481 
z"/>
<path fill="#1983A1" opacity="1.000000" stroke="none" 
	d="
M187.534729,362.047729 
	C187.971970,362.660278 188.024689,363.276703 188.099960,364.200745 
	C184.944382,364.104919 181.766266,363.701447 178.313446,363.046112 
	C181.075912,362.546692 184.113068,362.299164 187.534729,362.047729 
z"/>
<path fill="#999999" opacity="1.000000" stroke="none" 
	d="
M202.828979,184.283325 
	C202.089752,189.534698 199.087585,190.130554 194.089935,183.251862 
	C196.904968,183.183533 198.860092,188.763062 202.828979,184.283325 
z"/>
<path fill="#AFAFAF" opacity="1.000000" stroke="none" 
	d="
M64.677689,309.221558 
	C67.042679,307.336884 69.237564,305.687469 71.778831,304.077179 
	C70.870979,306.027222 69.833176,308.155182 68.248787,309.734985 
	C67.669785,310.312317 65.792549,309.587585 64.677689,309.221558 
z"/>
<path fill="#999999" opacity="1.000000" stroke="none" 
	d="
M149.858032,174.280685 
	C147.968201,177.162643 145.744827,180.020447 143.177826,182.867889 
	C145.064301,179.990524 147.294418,177.123535 149.858032,174.280685 
z"/>
<path fill="#AFAFAF" opacity="1.000000" stroke="none" 
	d="
M239.174286,184.730240 
	C240.874603,182.118103 242.905899,179.496414 245.266998,176.855042 
	C243.566299,179.463791 241.535767,182.092255 239.174286,184.730240 
z"/>
<path fill="#2168A1" opacity="1.000000" stroke="none" 
	d="
M188.784439,46.617130 
	C189.156570,47.124382 189.111298,47.429092 189.017776,47.964989 
	C186.178497,48.463116 183.367889,48.727158 180.200287,48.823868 
	C179.843262,48.656540 180.004456,48.361595 180.004456,48.361595 
	C182.798508,47.713554 185.592545,47.065521 188.784439,46.617130 
z"/>
<path fill="#999999" opacity="1.000000" stroke="none" 
	d="
M231.835052,151.244202 
	C230.150620,153.900360 228.131332,156.547592 225.781586,159.220200 
	C227.467499,156.575485 229.483841,153.905396 231.835052,151.244202 
z"/>
<path fill="#2168A1" opacity="1.000000" stroke="none" 
	d="
M173.936920,50.530037 
	C172.089600,50.797935 170.252640,50.804398 167.977112,50.644463 
	C169.509399,49.777840 171.480240,49.077610 173.815094,48.542488 
	C174.101822,49.227932 174.024551,49.748264 173.936920,50.530037 
z"/>
<path fill="#AFAFAF" opacity="1.000000" stroke="none" 
	d="
M165.561584,198.050873 
	C167.637650,193.682281 168.114166,193.691406 171.976044,198.697723 
	C169.957932,198.668808 167.963531,198.281265 165.561584,198.050873 
z"/>
<path fill="#1983A1" opacity="1.000000" stroke="none" 
	d="
M205.390991,364.922302 
	C207.351456,364.178040 209.744507,363.571869 212.582306,363.257080 
	C213.024887,363.930359 213.022720,364.312225 213.020569,364.694153 
	C210.621567,364.816223 208.222565,364.938293 205.390991,364.922302 
z"/>
<path fill="#AFAFAF" opacity="1.000000" stroke="none" 
	d="
M72.449066,304.080811 
	C73.771233,302.036255 75.427528,299.947571 77.424629,297.856628 
	C76.104683,299.915131 74.443947,301.975922 72.449066,304.080811 
z"/>
<path fill="#1C8DA6" opacity="1.000000" stroke="none" 
	d="
M238.840942,88.514023 
	C241.201752,88.786400 243.718826,89.379700 246.623901,89.991913 
	C247.271332,90.482689 247.530731,90.954544 247.880356,91.680008 
	C244.979446,90.900711 241.988312,89.867821 238.840942,88.514023 
z"/>
<path fill="#1C8DA6" opacity="1.000000" stroke="none" 
	d="
M219.324036,84.036217 
	C221.317535,84.155090 223.573410,84.519981 225.939209,85.192719 
	C223.894897,85.094452 221.740646,84.688347 219.324036,84.036217 
z"/>
<path fill="#30C87E" opacity="1.000000" stroke="none" 
	d="
M307.163208,87.598907 
	C305.547363,86.623650 303.777313,85.340134 301.983185,83.710815 
	C303.642395,84.673553 305.325684,85.982101 307.163208,87.598907 
z"/>
<path fill="#AFAFAF" opacity="1.000000" stroke="none" 
	d="
M62.646896,302.235657 
	C63.549713,303.503510 64.274910,305.028015 64.874741,306.930634 
	C63.989349,305.703247 63.229309,304.097778 62.646896,302.235657 
z"/>
<path fill="#1AB595" opacity="1.000000" stroke="none" 
	d="
M209.288254,329.988708 
	C208.978195,329.480438 209.011841,328.984039 209.043182,328.243347 
	C210.800156,327.825806 212.559448,327.652557 214.622589,327.833649 
	C214.943390,328.470917 214.957916,328.753998 214.609085,329.026855 
	C213.167374,329.344757 212.086639,329.673004 211.005905,330.001221 
	C210.547928,330.001007 210.089951,330.000793 209.288254,329.988708 
z"/>
<path fill="#AFAFAF" opacity="1.000000" stroke="none" 
	d="
M60.588799,295.223633 
	C61.495838,296.536041 62.218269,298.098450 62.781563,300.038879 
	C61.883011,298.769135 61.143600,297.121399 60.588799,295.223633 
z"/>
<path fill="#999999" opacity="1.000000" stroke="none" 
	d="
M238.448502,137.139954 
	C240.624634,137.873428 243.218353,138.785019 240.722992,142.147888 
	C239.762146,140.656372 239.122559,139.082397 238.448502,137.139954 
z"/>
<path fill="#1AB595" opacity="1.000000" stroke="none" 
	d="
M192.586487,327.769348 
	C192.955109,328.464508 192.958542,328.982574 192.964722,329.762939 
	C192.967499,330.025177 192.479416,330.052917 192.237274,330.087708 
	C191.210175,329.849609 190.425217,329.576660 189.348984,329.193024 
	C189.065002,328.804565 189.074875,328.526886 189.074387,328.047729 
	C190.114731,327.761505 191.168015,327.676880 192.586487,327.769348 
z"/>
<path fill="#2168A1" opacity="1.000000" stroke="none" 
	d="
M219.012070,47.485901 
	C217.532364,47.699722 215.911240,47.579250 214.100479,47.191990 
	C215.564117,47.000671 217.217377,47.076141 219.012070,47.485901 
z"/>
<path fill="#1AB595" opacity="1.000000" stroke="none" 
	d="
M213.399994,364.771851 
	C213.022720,364.312225 213.024887,363.930359 213.012756,363.261322 
	C214.066040,362.965851 215.133591,362.957550 216.966003,362.951416 
	C218.460175,362.954285 219.189499,362.954956 219.929565,363.215149 
	C219.958237,363.646973 219.976120,363.819214 219.994019,363.991455 
	C217.922485,364.277496 215.850937,364.563538 213.399994,364.771851 
z"/>
<path fill="#1DBD7B" opacity="1.000000" stroke="none" 
	d="
M249.696106,92.522354 
	C250.941757,92.739059 252.362656,93.246666 253.909744,94.042801 
	C252.647736,93.825294 251.259537,93.319275 249.696106,92.522354 
z"/>
<path fill="#AFAFAF" opacity="1.000000" stroke="none" 
	d="
M147.105408,218.544235 
	C147.716965,217.419006 148.644836,216.286041 149.899719,215.192810 
	C149.291733,216.333847 148.356720,217.435165 147.105408,218.544235 
z"/>
<path fill="#AFAFAF" opacity="1.000000" stroke="none" 
	d="
M231.146057,193.692413 
	C231.715179,192.506195 232.604645,191.318924 233.829193,190.144409 
	C233.264969,191.335251 232.365677,192.513321 231.146057,193.692413 
z"/>
<path fill="#1C8DA6" opacity="1.000000" stroke="none" 
	d="
M235.626984,86.809448 
	C236.552994,87.035614 237.105164,87.267616 237.818665,87.753593 
	C235.976746,87.635834 233.973495,87.264099 231.773529,86.561981 
	C232.802277,86.426170 234.027710,86.620735 235.626984,86.809448 
z"/>
<path fill="#AFAFAF" opacity="1.000000" stroke="none" 
	d="
M236.396271,188.012970 
	C236.741531,187.013763 237.406693,185.943100 238.413803,184.863159 
	C238.075897,185.883072 237.396042,186.912292 236.396271,188.012970 
z"/>
<path fill="#999999" opacity="1.000000" stroke="none" 
	d="
M234.610199,148.002304 
	C234.262955,148.997894 233.592453,150.062286 232.583298,151.145569 
	C232.925400,150.133331 233.606155,149.102219 234.610199,148.002304 
z"/>
<path fill="#14C2A6" opacity="1.000000" stroke="none" 
	d="
M225.011932,361.031738 
	C224.996353,361.407806 224.980774,361.783875 224.962433,362.441956 
	C224.254318,362.926025 223.548981,363.128082 222.462082,363.153168 
	C222.080505,362.976166 221.970062,362.631714 222.066345,362.336548 
	C223.112411,361.704834 224.062164,361.368286 225.011932,361.031738 
z"/>
<path fill="#13CE89" opacity="1.000000" stroke="none" 
	d="
M289.066040,73.487503 
	C288.143494,73.370811 287.121582,72.925827 286.057281,72.100800 
	C286.998810,72.200241 287.982758,72.679726 289.066040,73.487503 
z"/>
<path fill="#AFAFAF" opacity="1.000000" stroke="none" 
	d="
M270.835724,164.834991 
	C271.541534,163.940491 272.433990,163.507462 273.698486,163.055435 
	C274.874237,166.244156 273.664886,166.736786 270.835724,164.834991 
z"/>
<path fill="#2A84B3" opacity="1.000000" stroke="none" 
	d="
M94.233414,144.783340 
	C93.639641,145.021469 93.192039,145.017090 92.365921,144.765961 
	C91.976891,144.345230 91.966377,144.171249 92.008621,143.795990 
	C92.061378,143.594681 92.086143,143.179214 92.326012,143.027283 
	C93.046440,142.585693 93.527008,142.296051 94.007576,142.006424 
	C94.150688,142.155746 94.293800,142.305069 94.619522,142.715240 
	C94.661278,143.497665 94.520424,144.019257 94.233414,144.783340 
z"/>
<path fill="#999999" opacity="1.000000" stroke="none" 
	d="
M239.915405,142.375000 
	C239.657608,143.253479 239.082336,144.094971 238.188202,144.916748 
	C238.445557,144.044052 239.021744,143.191040 239.915405,142.375000 
z"/>
<path fill="#13CE89" opacity="1.000000" stroke="none" 
	d="
M285.497253,71.416122 
	C284.534943,71.238022 283.415558,70.719467 282.223572,69.799088 
	C283.214020,69.956718 284.277130,70.516190 285.497253,71.416122 
z"/>
<path fill="#AFAFAF" opacity="1.000000" stroke="none" 
	d="
M135.182953,232.702209 
	C135.425507,231.818619 135.980606,230.942505 136.870178,230.137390 
	C136.634918,231.042160 136.065201,231.875916 135.182953,232.702209 
z"/>
<path fill="#999999" opacity="1.000000" stroke="none" 
	d="
M151.783295,172.128510 
	C151.714798,172.824188 151.320908,173.497803 150.614807,174.182648 
	C150.687698,173.498062 151.072784,172.802246 151.783295,172.128510 
z"/>
<path fill="#AFAFAF" opacity="1.000000" stroke="none" 
	d="
M182.803406,209.565918 
	C183.456604,209.688721 184.153473,210.111252 184.799667,210.881866 
	C184.115021,210.775192 183.481049,210.320404 182.803406,209.565918 
z"/>
<path fill="#1983A1" opacity="1.000000" stroke="none" 
	d="
M220.137497,364.197205 
	C219.976120,363.819214 219.958237,363.646973 220.276337,363.188629 
	C221.064911,362.812286 221.517487,362.721985 221.970062,362.631714 
	C221.970062,362.631714 222.080505,362.976166 222.092422,363.157288 
	C221.496552,363.693268 220.888763,364.048126 220.137497,364.197205 
z"/>
<path fill="#999999" opacity="1.000000" stroke="none" 
	d="
M124.825104,203.255447 
	C124.723770,203.870193 124.303413,204.494980 123.586288,205.149872 
	C123.695045,204.541809 124.100563,203.903641 124.825104,203.255447 
z"/>
<path fill="#30C87E" opacity="1.000000" stroke="none" 
	d="
M310.206451,90.806816 
	C310.826080,91.277199 311.445709,91.747574 312.138611,92.511490 
	C312.211884,92.805038 312.065552,92.940811 311.690002,92.937424 
	C310.853638,92.313515 310.392792,91.693001 310.000153,91.005608 
	C310.068329,90.938736 310.206451,90.806816 310.206451,90.806816 
z"/>
<path fill="#30C87E" opacity="1.000000" stroke="none" 
	d="
M308.014465,90.994759 
	C308.020447,90.492531 308.026428,89.990295 308.055298,89.111389 
	C308.726532,89.225853 309.374786,89.717010 310.114746,90.507492 
	C310.206451,90.806816 310.068329,90.938736 309.681366,90.982361 
	C308.867767,91.015579 308.441101,91.005173 308.014465,90.994759 
z"/>
<path fill="#AFAFAF" opacity="1.000000" stroke="none" 
	d="
M175.229218,202.184937 
	C175.841278,202.259125 176.455795,202.640274 177.111847,203.309479 
	C176.512817,203.228989 175.872238,202.860443 175.229218,202.184937 
z"/>
<path fill="#AFAFAF" opacity="1.000000" stroke="none" 
	d="
M234.460251,190.078491 
	C234.572250,189.449707 234.981537,188.740372 235.737961,188.052338 
	C235.642578,188.715073 235.200058,189.356506 234.460251,190.078491 
z"/>
<path fill="#1983A1" opacity="1.000000" stroke="none" 
	d="
M214.970062,329.037201 
	C214.957916,328.753998 214.943390,328.470917 214.924927,327.979492 
	C215.414093,327.631836 215.904831,327.492645 216.755493,327.510162 
	C217.132309,327.979340 217.115616,328.289948 216.700867,328.832947 
	C215.880936,329.057190 215.425507,329.047211 214.970062,329.037201 
z"/>
<path fill="#999999" opacity="1.000000" stroke="none" 
	d="
M186.755554,175.828003 
	C186.126251,175.726822 185.481049,175.305969 184.832581,174.574112 
	C185.466095,174.678177 186.102875,175.093246 186.755554,175.828003 
z"/>
<path fill="#1983A1" opacity="1.000000" stroke="none" 
	d="
M223.840286,325.905273 
	C224.057449,326.351532 224.028091,326.603210 223.944473,327.045715 
	C223.477921,327.183594 223.048843,327.128754 222.304031,327.001099 
	C222.529037,326.523102 223.069794,326.117859 223.840286,325.905273 
z"/>
<path fill="#2168A1" opacity="1.000000" stroke="none" 
	d="
M232.009460,49.538116 
	C231.447449,49.708874 230.817169,49.586349 230.058167,49.252403 
	C230.600021,49.108932 231.270584,49.176884 232.009460,49.538116 
z"/>
<path fill="#AFAFAF" opacity="1.000000" stroke="none" 
	d="
M171.965393,199.363159 
	C172.641846,199.473083 173.340164,199.898544 174.015503,200.667847 
	C173.324112,200.567368 172.655685,200.123032 171.965393,199.363159 
z"/>
<path fill="#999999" opacity="1.000000" stroke="none" 
	d="
M204.777863,182.167252 
	C204.695923,182.818054 204.290070,183.490494 203.563812,184.162323 
	C203.646912,183.504120 204.050415,182.846512 204.777863,182.167252 
z"/>
<path fill="#AFAFAF" opacity="1.000000" stroke="none" 
	d="
M120.138092,249.709656 
	C120.212341,249.058426 120.593079,248.435730 121.263687,247.796600 
	C121.183899,248.432831 120.814232,249.085526 120.138092,249.709656 
z"/>
<path fill="#AFAFAF" opacity="1.000000" stroke="none" 
	d="
M263.200867,157.885361 
	C263.688568,157.930557 264.311646,158.271790 264.901428,158.901367 
	C264.357513,158.853592 263.846893,158.517487 263.200867,157.885361 
z"/>
<path fill="#AFAFAF" opacity="1.000000" stroke="none" 
	d="
M184.801025,211.553940 
	C185.474548,211.673553 186.181335,212.095917 186.830139,212.864777 
	C186.126205,212.759735 185.480255,212.308212 184.801025,211.553940 
z"/>
<path fill="#AFAFAF" opacity="1.000000" stroke="none" 
	d="
M186.800842,213.531586 
	C187.488937,213.653473 188.195297,214.081635 188.842743,214.855042 
	C188.128922,214.746140 187.474014,214.292007 186.800842,213.531586 
z"/>
<path fill="#AFAFAF" opacity="1.000000" stroke="none" 
	d="
M188.803680,215.522491 
	C189.511780,215.631668 190.232101,216.051483 190.896744,216.814301 
	C190.166016,216.715912 189.490967,216.274536 188.803680,215.522491 
z"/>
<path fill="#999999" opacity="1.000000" stroke="none" 
	d="
M111.822891,218.186096 
	C111.723106,218.863922 111.306480,219.514877 110.586182,220.174957 
	C110.690353,219.509140 111.098206,218.834198 111.822891,218.186096 
z"/>
<path fill="#999999" opacity="1.000000" stroke="none" 
	d="
M109.854446,220.250275 
	C109.772408,220.909515 109.374184,221.543076 108.682632,222.201019 
	C108.772293,221.558456 109.155281,220.891510 109.854446,220.250275 
z"/>
<path fill="#999999" opacity="1.000000" stroke="none" 
	d="
M236.563339,145.923523 
	C236.453720,146.554489 236.035660,147.252075 235.274658,147.942871 
	C235.372772,147.287430 235.813828,146.638779 236.563339,145.923523 
z"/>
<path fill="#999999" opacity="1.000000" stroke="none" 
	d="
M224.483551,159.813171 
	C224.388306,160.503769 223.986099,161.233597 223.241577,161.929138 
	C223.325027,161.214035 223.750809,160.533218 224.483551,159.813171 
z"/>
<path fill="#AFAFAF" opacity="1.000000" stroke="none" 
	d="
M178.760620,205.546997 
	C179.382172,205.683701 180.083664,206.116104 180.749649,206.903015 
	C180.089615,206.785934 179.465073,206.314316 178.760620,205.546997 
z"/>
<path fill="#AFAFAF" opacity="1.000000" stroke="none" 
	d="
M118.173401,251.786606 
	C118.263832,251.119308 118.662659,250.474213 119.362915,249.821396 
	C119.270164,250.478729 118.875977,251.143768 118.173401,251.786606 
z"/>
<path fill="#999999" opacity="1.000000" stroke="none" 
	d="
M82.855515,251.296570 
	C82.758972,251.895752 82.349899,252.501038 81.651978,253.149902 
	C81.756409,252.563202 82.149696,251.932953 82.855515,251.296570 
z"/>
<path fill="#999999" opacity="1.000000" stroke="none" 
	d="
M79.415283,254.782471 
	C79.308243,255.425125 78.899902,256.132263 78.144958,256.805695 
	C78.236900,256.130310 78.675438,255.488632 79.415283,254.782471 
z"/>
<path fill="#AFAFAF" opacity="1.000000" stroke="none" 
	d="
M180.807800,207.584137 
	C181.444702,207.707840 182.139557,208.126755 182.784912,208.893738 
	C182.112183,208.787659 181.488968,208.333496 180.807800,207.584137 
z"/>
<path fill="#999999" opacity="1.000000" stroke="none" 
	d="
M65.933304,270.426453 
	C65.842545,271.039520 65.447227,271.619263 64.776367,272.224182 
	C64.876793,271.630615 65.252769,271.011841 65.933304,270.426453 
z"/>
<path fill="#999999" opacity="1.000000" stroke="none" 
	d="
M236.353760,135.115356 
	C236.964874,135.218231 237.561264,135.631592 238.187622,136.329620 
	C237.591400,136.218124 236.965225,135.821991 236.353760,135.115356 
z"/>
<path fill="#AFAFAF" opacity="1.000000" stroke="none" 
	d="
M219.514465,207.155365 
	C219.629181,206.491516 220.046265,205.780731 220.810577,205.112946 
	C220.710800,205.806747 220.263824,206.457581 219.514465,207.155365 
z"/>
<path fill="#999999" opacity="1.000000" stroke="none" 
	d="
M57.859207,279.124603 
	C58.141285,279.595093 58.158314,279.996979 57.756386,280.722046 
	C57.114162,281.058716 56.890896,281.072266 56.667633,281.085846 
	C56.976475,280.409241 57.285320,279.732635 57.859207,279.124603 
z"/>
<path fill="#AFAFAF" opacity="1.000000" stroke="none" 
	d="
M56.584671,281.417938 
	C56.890896,281.072266 57.114162,281.058716 57.672188,281.022400 
	C58.089058,281.643463 58.171162,282.287323 57.979912,282.989380 
	C57.304943,282.615051 56.903324,282.182556 56.584671,281.417938 
z"/>
<path fill="#999999" opacity="1.000000" stroke="none" 
	d="
M232.840347,132.507477 
	C233.545532,132.559616 234.250290,132.946533 234.975647,133.669373 
	C234.277481,133.617615 233.558701,133.229935 232.840347,132.507477 
z"/>
<path fill="#999999" opacity="1.000000" stroke="none" 
	d="
M58.918327,289.947357 
	C59.574917,290.229797 60.006851,290.719757 60.320541,291.457458 
	C59.699425,291.188416 59.196548,290.671661 58.918327,289.947357 
z"/>
<path fill="#13CE89" opacity="1.000000" stroke="none" 
	d="
M290.925598,74.638344 
	C290.463196,74.749954 289.904755,74.559998 289.224731,74.086670 
	C289.678619,73.981133 290.254089,74.158951 290.925598,74.638344 
z"/>
<path fill="#10C0A1" opacity="1.000000" stroke="none" 
	d="
M279.247925,68.866089 
	C279.025665,68.765022 279.021210,68.541679 279.026978,67.981895 
	C279.216309,67.633850 279.395508,67.622238 279.794739,67.765862 
	C279.831787,68.195335 279.648773,68.469566 279.247925,68.866089 
z"/>
<path fill="#0DA4C3" opacity="1.000000" stroke="none" 
	d="
M179.776794,48.377342 
	C180.004456,48.361595 179.843262,48.656540 179.763458,48.805511 
	C179.683640,48.954479 179.354614,48.815109 179.282898,48.757492 
	C179.211166,48.699875 179.549118,48.393089 179.776794,48.377342 
z"/>
<path fill="#1983A1" opacity="1.000000" stroke="none" 
	d="
M193.242462,364.805420 
	C193.269897,364.606232 193.550262,364.514282 193.920380,364.571320 
	C193.838562,364.784393 193.666992,364.848511 193.242462,364.805420 
z"/>
<path fill="#2A84B3" opacity="1.000000" stroke="none" 
	d="
M140.393311,98.433533 
	C140.361267,98.205978 140.588791,97.961006 140.937241,97.903008 
	C140.923065,98.198685 140.787964,98.307396 140.393311,98.433533 
z"/>
<path fill="#26E780" opacity="1.000000" stroke="none" 
	d="
M336.020569,127.953583 
	C337.515350,129.361984 339.529755,130.500961 340.422119,132.221771 
	C347.089569,145.079208 352.900726,158.488892 355.218231,172.718765 
	C357.385437,186.026001 357.455231,199.708908 357.958405,213.244675 
	C358.622437,231.108719 353.860229,247.930740 347.052734,264.638916 
	C344.236115,262.733826 341.211761,260.705414 338.741058,258.143127 
	C332.622223,251.797501 326.694580,245.265793 327.634674,235.391922 
	C328.438507,226.949142 329.213623,218.500992 329.795471,210.041077 
	C330.012939,206.878998 329.647644,203.676849 329.272400,199.777939 
	C329.648621,192.057251 330.397736,185.058990 330.929138,178.044220 
	C331.703644,167.821014 332.118347,157.566818 333.079529,147.362854 
	C333.692230,140.858459 335.015747,134.421051 336.020569,127.953583 
z"/>
<path fill="#10D77C" opacity="1.000000" stroke="none" 
	d="
M335.970428,127.581543 
	C335.015747,134.421051 333.692230,140.858459 333.079529,147.362854 
	C332.118347,157.566818 331.703644,167.821014 330.929138,178.044220 
	C330.397736,185.058990 329.648621,192.057251 328.997803,199.531143 
	C328.552979,199.996918 328.107208,199.994431 327.327026,199.981140 
	C327.091248,176.572662 317.700073,156.274734 306.157715,135.935852 
	C306.716797,132.912674 307.190063,130.481628 308.177216,128.281097 
	C309.952789,124.323120 311.481476,120.048515 314.167816,116.770340 
	C316.304871,114.162407 317.606079,112.065086 316.442841,108.870094 
	C315.416534,106.051079 316.063416,104.010513 319.036133,102.970505 
	C322.108459,105.953964 325.180756,108.937439 328.572296,112.010345 
	C329.776978,113.757660 330.752441,115.374580 331.528717,117.082077 
	C333.051239,120.431221 334.462799,123.830795 335.970428,127.581543 
z"/>
<path fill="#16C687" opacity="1.000000" stroke="none" 
	d="
M290.005249,294.456848 
	C300.031708,283.109070 309.310394,271.678680 315.661957,258.092224 
	C316.142334,258.147125 316.622711,258.202026 317.103058,258.256927 
	C317.549438,260.649689 317.995789,263.042450 318.711975,265.704285 
	C318.977051,267.377380 318.972290,268.781403 318.590881,270.610931 
	C314.114624,272.497375 315.923889,274.232239 317.985107,275.978790 
	C317.985199,276.740295 317.985291,277.501831 317.638611,278.699219 
	C316.864899,280.085480 316.437927,281.035889 316.010986,281.986328 
	C315.002411,290.716003 313.993805,299.445648 312.975830,308.600098 
	C310.661438,317.042664 307.341583,324.371368 299.306030,328.851410 
	C298.496216,328.591278 297.669189,328.270874 297.524902,327.758270 
	C295.861053,321.847015 294.543732,316.010437 289.638275,311.375763 
	C288.204376,310.021027 289.858795,305.466248 289.981445,302.373596 
	C290.079803,299.893799 290.002411,297.407043 290.005249,294.456848 
z"/>
<path fill="#1DBD7B" opacity="1.000000" stroke="none" 
	d="
M318.255127,275.726624 
	C315.923889,274.232239 314.114624,272.497375 318.574585,271.031006 
	C318.798370,272.508575 318.661743,273.991486 318.255127,275.726624 
z"/>
<path fill="#1DBD7B" opacity="1.000000" stroke="none" 
	d="
M316.347687,281.929077 
	C316.437927,281.035889 316.864899,280.085480 317.626709,279.079803 
	C317.535858,279.973633 317.110138,280.922729 316.347687,281.929077 
z"/>
<path fill="#14A0FA" opacity="1.000000" stroke="none" 
	d="
M92.086143,143.179214 
	C92.086143,143.179214 92.061378,143.594681 91.657303,143.863922 
	C90.516060,146.104797 89.778900,148.076447 89.041740,150.048080 
	C89.041740,150.048080 89.025429,149.990402 88.678757,150.069183 
	C87.903496,151.448578 87.474915,152.749176 87.046333,154.049774 
	C87.046333,154.049774 87.039703,153.994919 86.758011,154.036224 
	C86.313278,154.719101 86.150246,155.360672 85.987213,156.002228 
	C85.868004,156.568695 85.748787,157.135162 85.067978,157.897980 
	C84.263145,159.032913 84.019905,159.971466 83.776672,160.910034 
	C83.354370,162.147095 82.932060,163.384171 81.901550,164.845123 
	C79.196251,167.046295 77.099152,169.023544 74.592712,171.000275 
	C70.475304,171.498856 68.882202,169.629639 67.973167,166.183746 
	C66.013451,158.755035 63.177273,151.563400 65.918694,143.615967 
	C67.668358,138.543655 61.517204,138.186432 59.956890,134.983780 
	C65.401962,126.359016 70.809830,117.710396 76.316383,109.125061 
	C77.831291,106.763138 79.641014,104.590309 82.031403,102.157166 
	C86.314941,102.040833 89.892303,101.973236 93.442642,102.251083 
	C94.238960,102.313393 95.320374,103.454559 95.617317,104.322533 
	C96.656693,107.360664 97.399544,110.499588 98.275589,113.594414 
	C99.290543,117.179985 100.057365,120.248772 98.195831,124.353462 
	C95.508141,130.279831 91.056252,135.947723 92.086143,143.179214 
z"/>
<path fill="#1397F9" opacity="1.000000" stroke="none" 
	d="
M59.657848,135.182495 
	C61.517204,138.186432 67.668358,138.543655 65.918694,143.615967 
	C63.177273,151.563400 66.013451,158.755035 67.973167,166.183746 
	C68.882202,169.629639 70.475304,171.498856 74.442795,171.303345 
	C72.136124,175.071304 69.570045,178.535660 66.704903,182.156357 
	C62.071911,187.866928 57.873913,193.534729 53.358517,198.937256 
	C50.088860,202.849304 46.398228,206.409470 42.895329,210.126556 
	C41.184948,183.625961 47.659546,158.928192 59.657848,135.182495 
z"/>
<path fill="#18A6F6" opacity="1.000000" stroke="none" 
	d="
M92.326012,143.027283 
	C91.056252,135.947723 95.508141,130.279831 98.195831,124.353462 
	C100.057365,120.248772 99.290543,117.179985 98.275589,113.594414 
	C97.399544,110.499588 96.656693,107.360664 95.617317,104.322533 
	C95.320374,103.454559 94.238960,102.313393 93.442642,102.251083 
	C89.892303,101.973236 86.314941,102.040833 82.303574,101.964722 
	C90.308052,94.368073 98.756279,86.790321 107.897934,79.086227 
	C110.608398,78.403122 112.625435,77.846352 114.970062,77.199158 
	C119.064133,85.519775 120.068565,94.141823 119.079918,102.955780 
	C118.657356,106.723053 117.085327,110.361389 116.035599,114.058311 
	C108.734161,123.142441 101.432716,132.226562 94.069427,141.658569 
	C93.527008,142.296051 93.046440,142.585693 92.326012,143.027283 
z"/>
<path fill="#0B7FF2" opacity="1.000000" stroke="none" 
	d="
M42.875595,210.577423 
	C46.398228,206.409470 50.088860,202.849304 53.358517,198.937256 
	C57.873913,193.534729 62.071911,187.866928 67.070267,182.150726 
	C71.152420,181.344711 74.524834,180.489120 73.318596,186.267273 
	C73.106606,187.282715 75.130226,188.764832 76.121391,190.031433 
	C76.088348,191.734436 76.055305,193.437439 75.621078,195.657578 
	C75.185905,198.805130 75.151909,201.435562 75.117905,204.065979 
	C75.105743,205.113770 75.093575,206.161545 74.707840,207.662231 
	C73.912666,209.123474 73.491051,210.131836 73.069435,211.140198 
	C64.793098,220.672211 56.516762,230.204239 48.240425,239.736252 
	C47.692753,239.494904 47.145081,239.253555 46.597408,239.012207 
	C43.720592,229.945175 42.789871,220.566544 42.875595,210.577423 
z"/>
<path fill="#18ABEF" opacity="1.000000" stroke="none" 
	d="
M116.332123,113.904701 
	C117.085327,110.361389 118.657356,106.723053 119.079918,102.955780 
	C120.068565,94.141823 119.064133,85.519775 114.970062,77.199158 
	C112.625435,77.846352 110.608398,78.403122 108.195923,78.937080 
	C111.273682,76.346352 114.746887,73.778435 118.773384,71.002777 
	C119.630737,70.639755 119.849960,70.405220 119.984344,70.091415 
	C120.367462,70.020340 120.750572,69.949272 121.776520,69.882805 
	C122.948082,69.263611 123.476807,68.639801 124.005524,68.015991 
	C124.372551,67.955078 124.739571,67.894157 125.743591,67.855301 
	C126.921371,67.248222 127.462166,66.619072 128.002960,65.989922 
	C128.378418,65.936806 128.753876,65.883690 129.409241,65.815979 
	C133.118469,66.782021 137.101135,64.432495 139.896561,69.607239 
	C141.881027,73.280746 140.635147,75.802628 140.799423,78.983757 
	C141.282959,88.346489 133.409470,93.476547 130.997437,101.571686 
	C126.201530,105.876663 121.415085,109.813881 116.332123,113.904701 
z"/>
<path fill="#1084EB" opacity="1.000000" stroke="none" 
	d="
M76.369675,189.762177 
	C75.130226,188.764832 73.106606,187.282715 73.318596,186.267273 
	C74.524834,180.489120 71.152420,181.344711 67.369324,181.994385 
	C69.570045,178.535660 72.136124,175.071304 74.852127,171.303879 
	C77.099152,169.023544 79.196251,167.046295 81.634407,165.032990 
	C80.189629,173.162262 78.403793,181.327576 76.369675,189.762177 
z"/>
<path fill="#1084EB" opacity="1.000000" stroke="none" 
	d="
M75.371231,203.756927 
	C75.151909,201.435562 75.185905,198.805130 75.590706,196.082367 
	C75.849190,198.475967 75.736870,200.961914 75.371231,203.756927 
z"/>
<path fill="#18A6F6" opacity="1.000000" stroke="none" 
	d="
M89.310501,149.862869 
	C89.778900,148.076447 90.516060,146.104797 91.604546,144.065216 
	C91.966377,144.171249 91.976891,144.345230 92.030533,144.777405 
	C91.242195,146.582962 90.410728,148.130310 89.310501,149.862869 
z"/>
<path fill="#18A6F6" opacity="1.000000" stroke="none" 
	d="
M87.316895,153.862778 
	C87.474915,152.749176 87.903496,151.448578 88.697189,150.093765 
	C88.570694,151.251633 88.079079,152.463699 87.316895,153.862778 
z"/>
<path fill="#18A6F6" opacity="1.000000" stroke="none" 
	d="
M83.960510,160.644882 
	C84.019905,159.971466 84.263145,159.032913 84.835823,158.077423 
	C84.824966,158.833588 84.484657,159.606659 83.960510,160.644882 
z"/>
<path fill="#1084EB" opacity="1.000000" stroke="none" 
	d="
M73.353958,210.973877 
	C73.491051,210.131836 73.912666,209.123474 74.688492,208.054749 
	C74.574638,208.932114 74.106567,209.869843 73.353958,210.973877 
z"/>
<path fill="#18ADE3" opacity="1.000000" stroke="none" 
	d="
M127.676003,66.017746 
	C127.462166,66.619072 126.921371,67.248222 126.022972,67.860489 
	C126.226593,67.244263 126.787819,66.644920 127.676003,66.017746 
z"/>
<path fill="#18ADE3" opacity="1.000000" stroke="none" 
	d="
M123.681633,68.045685 
	C123.476807,68.639801 122.948082,69.263611 122.069069,69.878609 
	C122.265099,69.271660 122.811424,68.673515 123.681633,68.045685 
z"/>
<path fill="#18A6F6" opacity="1.000000" stroke="none" 
	d="
M86.243698,155.849991 
	C86.150246,155.360672 86.313278,154.719101 86.771362,154.062271 
	C86.877670,154.597244 86.688927,155.147507 86.243698,155.849991 
z"/>
<path fill="#18ADE3" opacity="1.000000" stroke="none" 
	d="
M119.749100,70.156158 
	C119.849960,70.405220 119.630737,70.639755 119.086578,70.854538 
	C118.982971,70.600189 119.205429,70.369133 119.749100,70.156158 
z"/>
<path fill="#0798CC" opacity="1.000000" stroke="none" 
	d="
M125.916656,343.036682 
	C125.602722,342.933899 125.344017,342.752380 125.335457,342.119568 
	C127.315674,338.933136 130.734283,336.030060 130.586273,333.321899 
	C130.102844,324.476349 128.319305,315.701904 127.035812,306.900085 
	C136.267685,312.703705 145.499557,318.507324 154.874313,324.621887 
	C152.520935,327.156311 150.024658,329.379730 146.903702,331.835754 
	C144.501099,332.929016 142.682999,333.716339 140.952881,334.664246 
	C135.921936,337.420624 130.926193,340.241272 125.916656,343.036682 
z"/>
<path fill="#11ACCF" opacity="1.000000" stroke="none" 
	d="
M126.089844,343.337585 
	C130.926193,340.241272 135.921936,337.420624 140.952881,334.664246 
	C142.682999,333.716339 144.501099,332.929016 146.635834,332.028168 
	C146.994751,338.973969 146.996811,345.959930 146.997604,353.398834 
	C140.085236,350.447357 133.174133,347.042938 126.089844,343.337585 
z"/>
<path fill="#1AB595" opacity="1.000000" stroke="none" 
	d="
M255.991791,346.537537 
	C254.131134,344.165771 251.458176,341.580597 250.625854,338.498352 
	C249.684830,335.013580 250.396713,331.082428 250.699966,327.184753 
	C252.670792,333.384308 254.331451,339.744507 255.991791,346.537537 
z"/>
<path fill="#12BFAE" opacity="1.000000" stroke="none" 
	d="
M214.609085,329.026855 
	C215.425507,329.047211 215.880936,329.057190 216.678375,329.066589 
	C219.401398,329.378906 221.776840,329.745819 224.164719,329.992584 
	C228.099686,330.399261 230.309525,332.518738 229.930771,336.475525 
	C229.440231,341.600403 229.898148,346.294861 232.216599,351.112091 
	C233.208527,353.173096 231.583221,356.493774 231.074097,359.606140 
	C229.259888,360.313538 227.518723,360.656860 225.394745,361.015930 
	C224.062164,361.368286 223.112411,361.704834 222.066345,362.336548 
	C221.517487,362.721985 221.064911,362.812286 220.265564,362.929077 
	C219.189499,362.954956 218.460175,362.954285 217.365692,362.929749 
	C215.982498,353.513489 215.055206,344.109375 213.851105,334.740875 
	C213.665161,333.294037 212.209076,332.010498 211.173126,330.326324 
	C212.086639,329.673004 213.167374,329.344757 214.609085,329.026855 
z"/>
<path fill="#0EB7BB" opacity="1.000000" stroke="none" 
	d="
M213.322357,81.661369 
	C209.640366,81.614716 206.258545,81.297409 202.435913,80.958984 
	C202.330078,76.484024 203.003036,72.021324 202.886642,67.579308 
	C202.802582,64.371719 201.456329,61.217144 201.069351,57.991375 
	C200.746872,55.303108 201.000702,52.545712 201.002991,49.412289 
	C207.055557,49.624737 213.108597,50.206123 219.151672,50.877193 
	C222.724930,51.273998 223.065048,53.601654 222.709671,56.646858 
	C222.432419,59.022350 222.804092,61.469379 222.829117,63.885223 
	C222.881317,68.926453 223.006927,73.972809 222.795242,79.004135 
	C222.765854,79.702850 221.067154,80.703957 220.013901,80.908119 
	C217.930527,81.311928 215.758133,81.256363 213.322357,81.661369 
z"/>
<path fill="#12D283" opacity="1.000000" stroke="none" 
	d="
M318.877258,102.676010 
	C316.063416,104.010513 315.416534,106.051079 316.442841,108.870094 
	C317.606079,112.065086 316.304871,114.162407 314.167816,116.770340 
	C311.481476,120.048515 309.952789,124.323120 308.177216,128.281097 
	C307.190063,130.481628 306.716797,132.912674 306.000671,135.627808 
	C302.759033,131.886810 299.528564,127.757835 296.143402,123.330750 
	C296.880524,120.291946 297.772980,117.551476 298.663971,114.810524 
	C299.109924,113.438614 299.614990,112.082214 299.984039,110.689819 
	C300.609955,108.328156 301.122864,105.936729 301.731934,103.570335 
	C302.462677,100.731339 303.027161,97.820473 304.088684,95.107002 
	C304.689362,93.571609 306.142517,92.369720 307.613098,91.006195 
	C308.441101,91.005173 308.867767,91.015579 309.613190,91.049232 
	C310.392792,91.693001 310.853638,92.313515 311.617401,93.005905 
	C314.186371,96.179016 316.452393,99.280266 318.877258,102.676010 
z"/>
<path fill="#0993D4" opacity="1.000000" stroke="none" 
	d="
M126.803558,306.636871 
	C128.319305,315.701904 130.102844,324.476349 130.586273,333.321899 
	C130.734283,336.030060 127.315674,338.933136 125.218460,341.910217 
	C117.898300,337.837860 110.819740,333.709015 103.986618,329.207611 
	C103.274513,328.738525 103.354324,325.514923 104.192909,324.498688 
	C109.249138,318.371399 114.446152,312.326996 120.064049,306.724121 
	C121.209908,305.581299 124.350327,306.438446 126.803558,306.636871 
z"/>
</svg>